<mxfile host="Electron" modified="2024-07-02T13:01:14.110Z" agent="Mozilla/5.0 (Macintosh; Intel Mac OS X 10_15_7) AppleWebKit/537.36 (KHTML, like Gecko) draw.io/24.2.5 Chrome/120.0.6099.109 Electron/28.1.0 Safari/537.36" etag="nh04VvRs-u78gwjGbnKl" version="24.2.5" type="device" pages="7">
  <diagram name="Features" id="0zuaV3Zg5J-J-51PGs7z">
    <mxGraphModel dx="2074" dy="868" grid="1" gridSize="10" guides="1" tooltips="1" connect="1" arrows="1" fold="1" page="1" pageScale="1" pageWidth="850" pageHeight="1100" math="0" shadow="0">
      <root>
        <mxCell id="0" />
        <mxCell id="1" parent="0" />
        <mxCell id="igvzsJE-I0JW9wIyfEKl-16" value="Static (config) Risk" style="rounded=0;whiteSpace=wrap;html=1;sketch=1;hachureGap=4;jiggle=2;curveFitting=1;fontFamily=Architects Daughter;fontSource=https%3A%2F%2Ffonts.googleapis.com%2Fcss%3Ffamily%3DArchitects%2BDaughter;verticalAlign=bottom;fillColor=#fff2cc;strokeColor=#d6b656;" parent="1" vertex="1">
          <mxGeometry x="100" y="310" width="370" height="480" as="geometry" />
        </mxCell>
        <mxCell id="igvzsJE-I0JW9wIyfEKl-1" value="Vulnerability" style="rounded=1;whiteSpace=wrap;html=1;sketch=1;hachureGap=4;jiggle=2;curveFitting=1;fontFamily=Architects Daughter;fontSource=https%3A%2F%2Ffonts.googleapis.com%2Fcss%3Ffamily%3DArchitects%2BDaughter;fontSize=16;fontStyle=1;fillColor=#f5f5f5;gradientColor=#b3b3b3;strokeColor=#666666;" parent="1" vertex="1">
          <mxGeometry x="120" y="220" width="150" height="60" as="geometry" />
        </mxCell>
        <mxCell id="igvzsJE-I0JW9wIyfEKl-2" value="Compliance" style="rounded=1;whiteSpace=wrap;html=1;sketch=1;hachureGap=4;jiggle=2;curveFitting=1;fontFamily=Architects Daughter;fontSource=https%3A%2F%2Ffonts.googleapis.com%2Fcss%3Ffamily%3DArchitects%2BDaughter;fontSize=16;fontStyle=1;fillColor=#f5f5f5;gradientColor=#b3b3b3;strokeColor=#666666;" parent="1" vertex="1">
          <mxGeometry x="310" y="220" width="150" height="60" as="geometry" />
        </mxCell>
        <mxCell id="IgxObnEs6-NXooLAJX2n-9" style="edgeStyle=orthogonalEdgeStyle;rounded=0;hachureGap=4;orthogonalLoop=1;jettySize=auto;html=1;exitX=1;exitY=0.5;exitDx=0;exitDy=0;entryX=0;entryY=0.5;entryDx=0;entryDy=0;dashed=1;dashPattern=1 2;strokeColor=default;align=center;verticalAlign=middle;fontFamily=Architects Daughter;fontSource=https%3A%2F%2Ffonts.googleapis.com%2Fcss%3Ffamily%3DArchitects%2BDaughter;fontSize=11;fontColor=default;labelBackgroundColor=default;startArrow=classic;startFill=1;endArrow=classic;flowAnimation=1;" parent="1" source="igvzsJE-I0JW9wIyfEKl-3" target="igvzsJE-I0JW9wIyfEKl-4" edge="1">
          <mxGeometry relative="1" as="geometry" />
        </mxCell>
        <mxCell id="igvzsJE-I0JW9wIyfEKl-3" value="Runtime" style="rounded=1;whiteSpace=wrap;html=1;sketch=1;hachureGap=4;jiggle=2;curveFitting=1;fontFamily=Architects Daughter;fontSource=https%3A%2F%2Ffonts.googleapis.com%2Fcss%3Ffamily%3DArchitects%2BDaughter;fontSize=16;fontStyle=1;fillColor=#f5f5f5;gradientColor=#b3b3b3;strokeColor=#666666;" parent="1" vertex="1">
          <mxGeometry x="500" y="220" width="150" height="60" as="geometry" />
        </mxCell>
        <mxCell id="igvzsJE-I0JW9wIyfEKl-4" value="Web App &amp;amp; APi Security" style="rounded=1;whiteSpace=wrap;html=1;sketch=1;hachureGap=4;jiggle=2;curveFitting=1;fontFamily=Architects Daughter;fontSource=https%3A%2F%2Ffonts.googleapis.com%2Fcss%3Ffamily%3DArchitects%2BDaughter;fontSize=16;fontStyle=1;fillColor=#f5f5f5;gradientColor=#b3b3b3;strokeColor=#666666;" parent="1" vertex="1">
          <mxGeometry x="690" y="220" width="150" height="60" as="geometry" />
        </mxCell>
        <mxCell id="IgxObnEs6-NXooLAJX2n-10" style="edgeStyle=orthogonalEdgeStyle;rounded=0;hachureGap=4;orthogonalLoop=1;jettySize=auto;html=1;exitX=0.5;exitY=1;exitDx=0;exitDy=0;entryX=0.5;entryY=0;entryDx=0;entryDy=0;dashed=1;dashPattern=1 2;strokeColor=default;align=center;verticalAlign=middle;fontFamily=Architects Daughter;fontSource=https%3A%2F%2Ffonts.googleapis.com%2Fcss%3Ffamily%3DArchitects%2BDaughter;fontSize=11;fontColor=default;labelBackgroundColor=default;startArrow=classic;startFill=1;endArrow=classic;flowAnimation=1;" parent="1" source="igvzsJE-I0JW9wIyfEKl-5" target="igvzsJE-I0JW9wIyfEKl-6" edge="1">
          <mxGeometry relative="1" as="geometry" />
        </mxCell>
        <mxCell id="igvzsJE-I0JW9wIyfEKl-5" value="Cloud" style="rounded=1;whiteSpace=wrap;html=1;sketch=1;hachureGap=4;jiggle=2;curveFitting=1;fontFamily=Architects Daughter;fontSource=https%3A%2F%2Ffonts.googleapis.com%2Fcss%3Ffamily%3DArchitects%2BDaughter;fontSize=16;fontStyle=1;fillColor=#ffff88;strokeColor=#36393d;" parent="1" vertex="1">
          <mxGeometry x="-80" y="410" width="150" height="60" as="geometry" />
        </mxCell>
        <mxCell id="IgxObnEs6-NXooLAJX2n-11" style="edgeStyle=orthogonalEdgeStyle;rounded=0;hachureGap=4;orthogonalLoop=1;jettySize=auto;html=1;exitX=0.5;exitY=1;exitDx=0;exitDy=0;entryX=0.5;entryY=0;entryDx=0;entryDy=0;dashed=1;dashPattern=1 2;strokeColor=default;align=center;verticalAlign=middle;fontFamily=Architects Daughter;fontSource=https%3A%2F%2Ffonts.googleapis.com%2Fcss%3Ffamily%3DArchitects%2BDaughter;fontSize=11;fontColor=default;labelBackgroundColor=default;startArrow=classic;startFill=1;endArrow=classic;flowAnimation=1;" parent="1" source="igvzsJE-I0JW9wIyfEKl-6" target="igvzsJE-I0JW9wIyfEKl-7" edge="1">
          <mxGeometry relative="1" as="geometry" />
        </mxCell>
        <mxCell id="igvzsJE-I0JW9wIyfEKl-6" value="Cluster/Host" style="rounded=1;whiteSpace=wrap;html=1;sketch=1;hachureGap=4;jiggle=2;curveFitting=1;fontFamily=Architects Daughter;fontSource=https%3A%2F%2Ffonts.googleapis.com%2Fcss%3Ffamily%3DArchitects%2BDaughter;fontSize=16;fontStyle=1;fillColor=#ffff88;strokeColor=#36393d;" parent="1" vertex="1">
          <mxGeometry x="-80" y="500" width="150" height="60" as="geometry" />
        </mxCell>
        <mxCell id="IgxObnEs6-NXooLAJX2n-12" style="edgeStyle=orthogonalEdgeStyle;rounded=0;hachureGap=4;orthogonalLoop=1;jettySize=auto;html=1;exitX=0.5;exitY=1;exitDx=0;exitDy=0;entryX=0.5;entryY=0;entryDx=0;entryDy=0;dashed=1;dashPattern=1 2;strokeColor=default;align=center;verticalAlign=middle;fontFamily=Architects Daughter;fontSource=https%3A%2F%2Ffonts.googleapis.com%2Fcss%3Ffamily%3DArchitects%2BDaughter;fontSize=11;fontColor=default;labelBackgroundColor=default;startArrow=classic;startFill=1;endArrow=classic;flowAnimation=1;" parent="1" source="igvzsJE-I0JW9wIyfEKl-7" target="igvzsJE-I0JW9wIyfEKl-8" edge="1">
          <mxGeometry relative="1" as="geometry" />
        </mxCell>
        <mxCell id="igvzsJE-I0JW9wIyfEKl-7" value="Container" style="rounded=1;whiteSpace=wrap;html=1;sketch=1;hachureGap=4;jiggle=2;curveFitting=1;fontFamily=Architects Daughter;fontSource=https%3A%2F%2Ffonts.googleapis.com%2Fcss%3Ffamily%3DArchitects%2BDaughter;fontSize=16;fontStyle=1;fillColor=#ffff88;strokeColor=#36393d;" parent="1" vertex="1">
          <mxGeometry x="-80" y="590" width="150" height="60" as="geometry" />
        </mxCell>
        <mxCell id="igvzsJE-I0JW9wIyfEKl-8" value="Code" style="rounded=1;whiteSpace=wrap;html=1;sketch=1;hachureGap=4;jiggle=2;curveFitting=1;fontFamily=Architects Daughter;fontSource=https%3A%2F%2Ffonts.googleapis.com%2Fcss%3Ffamily%3DArchitects%2BDaughter;fontSize=16;fontStyle=1;fillColor=#ffff88;strokeColor=#36393d;" parent="1" vertex="1">
          <mxGeometry x="-80" y="680" width="150" height="60" as="geometry" />
        </mxCell>
        <mxCell id="igvzsJE-I0JW9wIyfEKl-13" value="Cloud Misconfiguration against Standards and Best Practices" style="rounded=1;whiteSpace=wrap;html=1;sketch=1;hachureGap=4;jiggle=2;curveFitting=1;fontFamily=Architects Daughter;fontSource=https%3A%2F%2Ffonts.googleapis.com%2Fcss%3Ffamily%3DArchitects%2BDaughter;fillColor=#d5e8d4;gradientColor=#97d077;strokeColor=#82b366;" parent="1" vertex="1">
          <mxGeometry x="310" y="410" width="150" height="60" as="geometry" />
        </mxCell>
        <mxCell id="igvzsJE-I0JW9wIyfEKl-14" value="Mix of MisConfiguration which create network or identity level loophole" style="rounded=1;whiteSpace=wrap;html=1;sketch=1;hachureGap=4;jiggle=2;curveFitting=1;fontFamily=Architects Daughter;fontSource=https%3A%2F%2Ffonts.googleapis.com%2Fcss%3Ffamily%3DArchitects%2BDaughter;fillColor=#d5e8d4;gradientColor=#97d077;strokeColor=#82b366;" parent="1" vertex="1">
          <mxGeometry x="120" y="410" width="150" height="60" as="geometry" />
        </mxCell>
        <mxCell id="igvzsJE-I0JW9wIyfEKl-15" value="Data" style="rounded=1;whiteSpace=wrap;html=1;sketch=1;hachureGap=4;jiggle=2;curveFitting=1;fontFamily=Architects Daughter;fontSource=https%3A%2F%2Ffonts.googleapis.com%2Fcss%3Ffamily%3DArchitects%2BDaughter;fontSize=16;fontStyle=1;fillColor=#ffcccc;strokeColor=#36393d;" parent="1" vertex="1">
          <mxGeometry x="-80" y="320" width="150" height="60" as="geometry" />
        </mxCell>
        <mxCell id="igvzsJE-I0JW9wIyfEKl-17" value="Dynamic (runtime) Risk" style="rounded=0;whiteSpace=wrap;html=1;sketch=1;hachureGap=4;jiggle=2;curveFitting=1;fontFamily=Architects Daughter;fontSource=https%3A%2F%2Ffonts.googleapis.com%2Fcss%3Ffamily%3DArchitects%2BDaughter;verticalAlign=bottom;fillColor=#dae8fc;strokeColor=#6c8ebf;" parent="1" vertex="1">
          <mxGeometry x="480" y="310" width="370" height="480" as="geometry" />
        </mxCell>
        <mxCell id="igvzsJE-I0JW9wIyfEKl-18" value="Sensitive Data Public Exposure" style="rounded=1;whiteSpace=wrap;html=1;sketch=1;hachureGap=4;jiggle=2;curveFitting=1;fontFamily=Architects Daughter;fontSource=https%3A%2F%2Ffonts.googleapis.com%2Fcss%3Ffamily%3DArchitects%2BDaughter;fillColor=#f8cecc;gradientColor=#ea6b66;strokeColor=#b85450;" parent="1" vertex="1">
          <mxGeometry x="305" y="320" width="150" height="60" as="geometry" />
        </mxCell>
        <mxCell id="igvzsJE-I0JW9wIyfEKl-19" value="Cloud storage MisConfiguration" style="rounded=1;whiteSpace=wrap;html=1;sketch=1;hachureGap=4;jiggle=2;curveFitting=1;fontFamily=Architects Daughter;fontSource=https%3A%2F%2Ffonts.googleapis.com%2Fcss%3Ffamily%3DArchitects%2BDaughter;fillColor=#f8cecc;gradientColor=#ea6b66;strokeColor=#b85450;" parent="1" vertex="1">
          <mxGeometry x="115" y="320" width="150" height="60" as="geometry" />
        </mxCell>
        <mxCell id="igvzsJE-I0JW9wIyfEKl-20" value="Operating System Configurations against Standards&lt;div&gt;Embedded Secrets&lt;/div&gt;" style="rounded=1;whiteSpace=wrap;html=1;sketch=1;hachureGap=4;jiggle=2;curveFitting=1;fontFamily=Architects Daughter;fontSource=https%3A%2F%2Ffonts.googleapis.com%2Fcss%3Ffamily%3DArchitects%2BDaughter;fillColor=#ffcd28;gradientColor=#ffa500;strokeColor=#d79b00;" parent="1" vertex="1">
          <mxGeometry x="310" y="500" width="150" height="60" as="geometry" />
        </mxCell>
        <mxCell id="igvzsJE-I0JW9wIyfEKl-21" value="Operating System, Middleware Vulnerabilities, Malware" style="rounded=1;whiteSpace=wrap;html=1;sketch=1;hachureGap=4;jiggle=2;curveFitting=1;fontFamily=Architects Daughter;fontSource=https%3A%2F%2Ffonts.googleapis.com%2Fcss%3Ffamily%3DArchitects%2BDaughter;fillColor=#ffcd28;gradientColor=#ffa500;strokeColor=#d79b00;" parent="1" vertex="1">
          <mxGeometry x="120" y="500" width="150" height="60" as="geometry" />
        </mxCell>
        <mxCell id="igvzsJE-I0JW9wIyfEKl-22" value="Container &amp;amp; Image level configuration issues&lt;div&gt;Hardcoded Secrets&lt;/div&gt;" style="rounded=1;whiteSpace=wrap;html=1;sketch=1;hachureGap=4;jiggle=2;curveFitting=1;fontFamily=Architects Daughter;fontSource=https%3A%2F%2Ffonts.googleapis.com%2Fcss%3Ffamily%3DArchitects%2BDaughter;fillColor=#ffcd28;gradientColor=#ffa500;strokeColor=#d79b00;" parent="1" vertex="1">
          <mxGeometry x="305" y="590" width="150" height="60" as="geometry" />
        </mxCell>
        <mxCell id="igvzsJE-I0JW9wIyfEKl-23" value="Container at rest and Container at runtime level Vulnerabilities" style="rounded=1;whiteSpace=wrap;html=1;sketch=1;hachureGap=4;jiggle=2;curveFitting=1;fontFamily=Architects Daughter;fontSource=https%3A%2F%2Ffonts.googleapis.com%2Fcss%3Ffamily%3DArchitects%2BDaughter;fillColor=#ffcd28;gradientColor=#ffa500;strokeColor=#d79b00;" parent="1" vertex="1">
          <mxGeometry x="115" y="590" width="150" height="60" as="geometry" />
        </mxCell>
        <mxCell id="igvzsJE-I0JW9wIyfEKl-24" value="OSS license compliance&lt;div&gt;Embedded Secrets&lt;/div&gt;" style="rounded=1;whiteSpace=wrap;html=1;sketch=1;hachureGap=4;jiggle=2;curveFitting=1;fontFamily=Architects Daughter;fontSource=https%3A%2F%2Ffonts.googleapis.com%2Fcss%3Ffamily%3DArchitects%2BDaughter;fillColor=#dae8fc;gradientColor=#7ea6e0;strokeColor=#6c8ebf;" parent="1" vertex="1">
          <mxGeometry x="310" y="680" width="150" height="60" as="geometry" />
        </mxCell>
        <mxCell id="igvzsJE-I0JW9wIyfEKl-25" value="Software Supply Chain Protection against Vulnerable Library/Module" style="rounded=1;whiteSpace=wrap;html=1;sketch=1;hachureGap=4;jiggle=2;curveFitting=1;fontFamily=Architects Daughter;fontSource=https%3A%2F%2Ffonts.googleapis.com%2Fcss%3Ffamily%3DArchitects%2BDaughter;fillColor=#dae8fc;gradientColor=#7ea6e0;strokeColor=#6c8ebf;" parent="1" vertex="1">
          <mxGeometry x="120" y="680" width="150" height="60" as="geometry" />
        </mxCell>
        <mxCell id="igvzsJE-I0JW9wIyfEKl-26" value="Cloud API Inventory Insertion from CSP API Management Services" style="rounded=1;whiteSpace=wrap;html=1;sketch=1;hachureGap=4;jiggle=2;curveFitting=1;fontFamily=Architects Daughter;fontSource=https%3A%2F%2Ffonts.googleapis.com%2Fcss%3Ffamily%3DArchitects%2BDaughter;fillColor=#d5e8d4;gradientColor=#97d077;strokeColor=#82b366;" parent="1" vertex="1">
          <mxGeometry x="695" y="410" width="150" height="60" as="geometry" />
        </mxCell>
        <mxCell id="igvzsJE-I0JW9wIyfEKl-27" value="Suspicious Network Connectivity &amp;amp; Abnormal user behavior&amp;nbsp;" style="rounded=1;whiteSpace=wrap;html=1;sketch=1;hachureGap=4;jiggle=2;curveFitting=1;fontFamily=Architects Daughter;fontSource=https%3A%2F%2Ffonts.googleapis.com%2Fcss%3Ffamily%3DArchitects%2BDaughter;fillColor=#d5e8d4;gradientColor=#97d077;strokeColor=#82b366;" parent="1" vertex="1">
          <mxGeometry x="505" y="410" width="150" height="60" as="geometry" />
        </mxCell>
        <mxCell id="igvzsJE-I0JW9wIyfEKl-28" value="Sensitive Data in Transit thru&#39; HTTP(s) &amp;amp; API" style="rounded=1;whiteSpace=wrap;html=1;sketch=1;hachureGap=4;jiggle=2;curveFitting=1;fontFamily=Architects Daughter;fontSource=https%3A%2F%2Ffonts.googleapis.com%2Fcss%3Ffamily%3DArchitects%2BDaughter;fillColor=#f8cecc;gradientColor=#ea6b66;strokeColor=#b85450;" parent="1" vertex="1">
          <mxGeometry x="690" y="320" width="150" height="60" as="geometry" />
        </mxCell>
        <mxCell id="igvzsJE-I0JW9wIyfEKl-29" value="Abnormal Data flow Traffic Flow" style="rounded=1;whiteSpace=wrap;html=1;sketch=1;hachureGap=4;jiggle=2;curveFitting=1;fontFamily=Architects Daughter;fontSource=https%3A%2F%2Ffonts.googleapis.com%2Fcss%3Ffamily%3DArchitects%2BDaughter;fillColor=#f8cecc;gradientColor=#ea6b66;strokeColor=#b85450;" parent="1" vertex="1">
          <mxGeometry x="500" y="320" width="150" height="60" as="geometry" />
        </mxCell>
        <mxCell id="igvzsJE-I0JW9wIyfEKl-30" value="Protect Monolithic Application base on VM/Baremetal" style="rounded=1;whiteSpace=wrap;html=1;sketch=1;hachureGap=4;jiggle=2;curveFitting=1;fontFamily=Architects Daughter;fontSource=https%3A%2F%2Ffonts.googleapis.com%2Fcss%3Ffamily%3DArchitects%2BDaughter;fillColor=#ffcd28;gradientColor=#ffa500;strokeColor=#d79b00;" parent="1" vertex="1">
          <mxGeometry x="695" y="500" width="150" height="60" as="geometry" />
        </mxCell>
        <mxCell id="igvzsJE-I0JW9wIyfEKl-31" value="Malware actions, runtime incidents, network level attack and File system level attacks. e.g. Crypto Hacking, Port Scanning, Reverse Shell Attack Protections" style="rounded=1;whiteSpace=wrap;html=1;sketch=1;hachureGap=4;jiggle=2;curveFitting=1;fontFamily=Architects Daughter;fontSource=https%3A%2F%2Ffonts.googleapis.com%2Fcss%3Ffamily%3DArchitects%2BDaughter;fillColor=#ffcd28;gradientColor=#ffa500;strokeColor=#d79b00;" parent="1" vertex="1">
          <mxGeometry x="505" y="500" width="150" height="150" as="geometry" />
        </mxCell>
        <mxCell id="igvzsJE-I0JW9wIyfEKl-32" value="Protect Cloud native Applications base on Container and Serverless" style="rounded=1;whiteSpace=wrap;html=1;sketch=1;hachureGap=4;jiggle=2;curveFitting=1;fontFamily=Architects Daughter;fontSource=https%3A%2F%2Ffonts.googleapis.com%2Fcss%3Ffamily%3DArchitects%2BDaughter;fillColor=#ffcd28;gradientColor=#ffa500;strokeColor=#d79b00;" parent="1" vertex="1">
          <mxGeometry x="690" y="590" width="150" height="60" as="geometry" />
        </mxCell>
        <mxCell id="igvzsJE-I0JW9wIyfEKl-34" value="OpenAPI Best Practices" style="rounded=1;whiteSpace=wrap;html=1;sketch=1;hachureGap=4;jiggle=2;curveFitting=1;fontFamily=Architects Daughter;fontSource=https%3A%2F%2Ffonts.googleapis.com%2Fcss%3Ffamily%3DArchitects%2BDaughter;fillColor=#dae8fc;gradientColor=#7ea6e0;strokeColor=#6c8ebf;" parent="1" vertex="1">
          <mxGeometry x="695" y="680" width="150" height="60" as="geometry" />
        </mxCell>
        <mxCell id="igvzsJE-I0JW9wIyfEKl-35" value="Drift Detection on Deployed IaC Codes" style="rounded=1;whiteSpace=wrap;html=1;sketch=1;hachureGap=4;jiggle=2;curveFitting=1;fontFamily=Architects Daughter;fontSource=https%3A%2F%2Ffonts.googleapis.com%2Fcss%3Ffamily%3DArchitects%2BDaughter;fillColor=#dae8fc;gradientColor=#7ea6e0;strokeColor=#6c8ebf;" parent="1" vertex="1">
          <mxGeometry x="505" y="680" width="150" height="60" as="geometry" />
        </mxCell>
        <mxCell id="igvzsJE-I0JW9wIyfEKl-36" value="Cloud Native Application Security Lifecycle Management" style="endArrow=classic;html=1;rounded=0;sketch=1;hachureGap=4;jiggle=2;curveFitting=1;fontFamily=Architects Daughter;fontSource=https%3A%2F%2Ffonts.googleapis.com%2Fcss%3Ffamily%3DArchitects%2BDaughter;fontSize=16;startArrow=classic;startFill=1;" parent="1" edge="1">
          <mxGeometry width="50" height="50" relative="1" as="geometry">
            <mxPoint x="115" y="170" as="sourcePoint" />
            <mxPoint x="835" y="170" as="targetPoint" />
          </mxGeometry>
        </mxCell>
        <mxCell id="IgxObnEs6-NXooLAJX2n-44" style="edgeStyle=orthogonalEdgeStyle;rounded=0;hachureGap=4;orthogonalLoop=1;jettySize=auto;html=1;exitX=0.5;exitY=1;exitDx=0;exitDy=0;entryX=0.5;entryY=0;entryDx=0;entryDy=0;dashed=1;dashPattern=1 2;strokeColor=default;align=center;verticalAlign=middle;fontFamily=Architects Daughter;fontSource=https%3A%2F%2Ffonts.googleapis.com%2Fcss%3Ffamily%3DArchitects%2BDaughter;fontSize=11;fontColor=default;labelBackgroundColor=default;startArrow=classic;startFill=1;endArrow=classic;flowAnimation=1;" parent="1" source="IgxObnEs6-NXooLAJX2n-1" target="IgxObnEs6-NXooLAJX2n-2" edge="1">
          <mxGeometry relative="1" as="geometry" />
        </mxCell>
        <mxCell id="IgxObnEs6-NXooLAJX2n-1" value="DSPM / DDR" style="rounded=1;whiteSpace=wrap;html=1;sketch=1;hachureGap=4;jiggle=2;curveFitting=1;fontFamily=Architects Daughter;fontSource=https%3A%2F%2Ffonts.googleapis.com%2Fcss%3Ffamily%3DArchitects%2BDaughter;fontSize=16;fontStyle=1;fillColor=#fff2cc;gradientColor=#ffd966;strokeColor=#d6b656;" parent="1" vertex="1">
          <mxGeometry x="880" y="320" width="150" height="60" as="geometry" />
        </mxCell>
        <mxCell id="IgxObnEs6-NXooLAJX2n-45" style="edgeStyle=orthogonalEdgeStyle;rounded=0;hachureGap=4;orthogonalLoop=1;jettySize=auto;html=1;exitX=0.5;exitY=1;exitDx=0;exitDy=0;entryX=0.5;entryY=0;entryDx=0;entryDy=0;dashed=1;dashPattern=1 2;strokeColor=default;align=center;verticalAlign=middle;fontFamily=Architects Daughter;fontSource=https%3A%2F%2Ffonts.googleapis.com%2Fcss%3Ffamily%3DArchitects%2BDaughter;fontSize=11;fontColor=default;labelBackgroundColor=default;startArrow=classic;startFill=1;endArrow=classic;flowAnimation=1;" parent="1" source="IgxObnEs6-NXooLAJX2n-2" target="IgxObnEs6-NXooLAJX2n-3" edge="1">
          <mxGeometry relative="1" as="geometry" />
        </mxCell>
        <mxCell id="IgxObnEs6-NXooLAJX2n-2" value="CSPM / CDR" style="rounded=1;whiteSpace=wrap;html=1;sketch=1;hachureGap=4;jiggle=2;curveFitting=1;fontFamily=Architects Daughter;fontSource=https%3A%2F%2Ffonts.googleapis.com%2Fcss%3Ffamily%3DArchitects%2BDaughter;fontSize=16;fontStyle=1;fillColor=#fff2cc;gradientColor=#ffd966;strokeColor=#d6b656;" parent="1" vertex="1">
          <mxGeometry x="880" y="410" width="150" height="60" as="geometry" />
        </mxCell>
        <mxCell id="IgxObnEs6-NXooLAJX2n-46" style="edgeStyle=orthogonalEdgeStyle;rounded=0;hachureGap=4;orthogonalLoop=1;jettySize=auto;html=1;exitX=0.5;exitY=1;exitDx=0;exitDy=0;entryX=0.5;entryY=0;entryDx=0;entryDy=0;dashed=1;dashPattern=1 2;strokeColor=default;align=center;verticalAlign=middle;fontFamily=Architects Daughter;fontSource=https%3A%2F%2Ffonts.googleapis.com%2Fcss%3Ffamily%3DArchitects%2BDaughter;fontSize=11;fontColor=default;labelBackgroundColor=default;startArrow=classic;startFill=1;endArrow=classic;flowAnimation=1;" parent="1" source="IgxObnEs6-NXooLAJX2n-3" target="IgxObnEs6-NXooLAJX2n-5" edge="1">
          <mxGeometry relative="1" as="geometry" />
        </mxCell>
        <mxCell id="IgxObnEs6-NXooLAJX2n-3" value="CWPP / CDR" style="rounded=1;whiteSpace=wrap;html=1;sketch=1;hachureGap=4;jiggle=2;curveFitting=1;fontFamily=Architects Daughter;fontSource=https%3A%2F%2Ffonts.googleapis.com%2Fcss%3Ffamily%3DArchitects%2BDaughter;fontSize=16;fontStyle=1;fillColor=#fff2cc;gradientColor=#ffd966;strokeColor=#d6b656;" parent="1" vertex="1">
          <mxGeometry x="880" y="500" width="150" height="150" as="geometry" />
        </mxCell>
        <mxCell id="IgxObnEs6-NXooLAJX2n-5" value="Cloud Application&lt;div&gt;Security&lt;/div&gt;" style="rounded=1;whiteSpace=wrap;html=1;sketch=1;hachureGap=4;jiggle=2;curveFitting=1;fontFamily=Architects Daughter;fontSource=https%3A%2F%2Ffonts.googleapis.com%2Fcss%3Ffamily%3DArchitects%2BDaughter;fontSize=16;fontStyle=1;fillColor=#fff2cc;gradientColor=#ffd966;strokeColor=#d6b656;" parent="1" vertex="1">
          <mxGeometry x="880" y="680" width="150" height="60" as="geometry" />
        </mxCell>
        <mxCell id="IgxObnEs6-NXooLAJX2n-8" style="edgeStyle=orthogonalEdgeStyle;rounded=0;hachureGap=4;orthogonalLoop=1;jettySize=auto;html=1;exitX=1;exitY=0.5;exitDx=0;exitDy=0;entryX=0;entryY=0.5;entryDx=0;entryDy=0;fontFamily=Architects Daughter;fontSource=https%3A%2F%2Ffonts.googleapis.com%2Fcss%3Ffamily%3DArchitects%2BDaughter;startArrow=classic;startFill=1;flowAnimation=1;dashed=1;dashPattern=1 2;" parent="1" source="igvzsJE-I0JW9wIyfEKl-1" target="igvzsJE-I0JW9wIyfEKl-2" edge="1">
          <mxGeometry relative="1" as="geometry" />
        </mxCell>
        <mxCell id="IgxObnEs6-NXooLAJX2n-13" value="" style="shape=curlyBracket;whiteSpace=wrap;html=1;rounded=1;labelPosition=left;verticalLabelPosition=middle;align=right;verticalAlign=middle;sketch=1;hachureGap=4;jiggle=2;curveFitting=1;fontFamily=Architects Daughter;fontSource=https%3A%2F%2Ffonts.googleapis.com%2Fcss%3Ffamily%3DArchitects%2BDaughter;fontSize=11;fontColor=default;labelBackgroundColor=default;" parent="1" vertex="1">
          <mxGeometry x="-120" y="410" width="20" height="330" as="geometry" />
        </mxCell>
        <mxCell id="IgxObnEs6-NXooLAJX2n-14" value="4C" style="text;html=1;align=center;verticalAlign=middle;whiteSpace=wrap;rounded=0;fontFamily=Architects Daughter;fontSource=https%3A%2F%2Ffonts.googleapis.com%2Fcss%3Ffamily%3DArchitects%2BDaughter;fontSize=16;fontColor=default;labelBackgroundColor=default;" parent="1" vertex="1">
          <mxGeometry x="-170" y="560" width="60" height="30" as="geometry" />
        </mxCell>
        <mxCell id="IgxObnEs6-NXooLAJX2n-15" value="" style="shape=curlyBracket;whiteSpace=wrap;html=1;rounded=1;flipH=1;labelPosition=right;verticalLabelPosition=middle;align=left;verticalAlign=middle;sketch=1;hachureGap=4;jiggle=2;curveFitting=1;fontFamily=Architects Daughter;fontSource=https%3A%2F%2Ffonts.googleapis.com%2Fcss%3Ffamily%3DArchitects%2BDaughter;fontSize=11;fontColor=default;labelBackgroundColor=default;" parent="1" vertex="1">
          <mxGeometry x="1050" y="320" width="20" height="420" as="geometry" />
        </mxCell>
        <mxCell id="IgxObnEs6-NXooLAJX2n-16" value="CNAPP" style="text;html=1;align=center;verticalAlign=middle;whiteSpace=wrap;rounded=0;fontFamily=Architects Daughter;fontSource=https%3A%2F%2Ffonts.googleapis.com%2Fcss%3Ffamily%3DArchitects%2BDaughter;fontSize=16;fontColor=default;labelBackgroundColor=default;" parent="1" vertex="1">
          <mxGeometry x="1080" y="515" width="60" height="30" as="geometry" />
        </mxCell>
        <mxCell id="IgxObnEs6-NXooLAJX2n-17" value="" style="shape=curlyBracket;whiteSpace=wrap;html=1;rounded=1;flipH=1;labelPosition=right;verticalLabelPosition=middle;align=left;verticalAlign=middle;sketch=1;hachureGap=4;jiggle=2;curveFitting=1;fontFamily=Architects Daughter;fontSource=https%3A%2F%2Ffonts.googleapis.com%2Fcss%3Ffamily%3DArchitects%2BDaughter;fontSize=11;fontColor=default;labelBackgroundColor=default;rotation=90;" parent="1" vertex="1">
          <mxGeometry x="465" y="445" width="20" height="750" as="geometry" />
        </mxCell>
        <mxCell id="IgxObnEs6-NXooLAJX2n-18" value="Security Capabilities" style="text;html=1;align=center;verticalAlign=middle;whiteSpace=wrap;rounded=0;fontFamily=Architects Daughter;fontSource=https%3A%2F%2Ffonts.googleapis.com%2Fcss%3Ffamily%3DArchitects%2BDaughter;fontSize=16;fontColor=default;labelBackgroundColor=default;" parent="1" vertex="1">
          <mxGeometry x="382.5" y="840" width="185" height="30" as="geometry" />
        </mxCell>
      </root>
    </mxGraphModel>
  </diagram>
  <diagram id="XTk-Cjgb4JZDcyYo7doe" name="4C Security">
    <mxGraphModel dx="1224" dy="868" grid="0" gridSize="10" guides="1" tooltips="1" connect="1" arrows="1" fold="1" page="1" pageScale="1" pageWidth="850" pageHeight="1100" math="0" shadow="0">
      <root>
        <mxCell id="0" />
        <mxCell id="1" parent="0" />
        <mxCell id="P8K-Ryyp-Y_ahrK-BIyI-2" value="Cloud /&amp;nbsp;&lt;div&gt;Co-Lo /&lt;/div&gt;&lt;div&gt;&amp;nbsp;Corporate Datacenter&lt;/div&gt;" style="rounded=1;whiteSpace=wrap;html=1;sketch=1;hachureGap=4;jiggle=2;curveFitting=1;fontFamily=Architects Daughter;fontSource=https%3A%2F%2Ffonts.googleapis.com%2Fcss%3Ffamily%3DArchitects%2BDaughter;arcSize=9;verticalAlign=bottom;fillColor=#ffe6cc;strokeColor=#d79b00;" parent="1" vertex="1">
          <mxGeometry x="190" y="320" width="530" height="370" as="geometry" />
        </mxCell>
        <mxCell id="P8K-Ryyp-Y_ahrK-BIyI-3" value="Cluster" style="rounded=1;whiteSpace=wrap;html=1;sketch=1;hachureGap=4;jiggle=2;curveFitting=1;fontFamily=Architects Daughter;fontSource=https%3A%2F%2Ffonts.googleapis.com%2Fcss%3Ffamily%3DArchitects%2BDaughter;arcSize=9;verticalAlign=bottom;fillColor=#fff2cc;strokeColor=#d6b656;" parent="1" vertex="1">
          <mxGeometry x="210" y="350" width="490" height="290" as="geometry" />
        </mxCell>
        <mxCell id="P8K-Ryyp-Y_ahrK-BIyI-4" value="Container" style="rounded=1;whiteSpace=wrap;html=1;sketch=1;hachureGap=4;jiggle=2;curveFitting=1;fontFamily=Architects Daughter;fontSource=https%3A%2F%2Ffonts.googleapis.com%2Fcss%3Ffamily%3DArchitects%2BDaughter;arcSize=9;verticalAlign=bottom;fillColor=#FFD966;" parent="1" vertex="1">
          <mxGeometry x="240" y="380" width="430" height="200" as="geometry" />
        </mxCell>
        <mxCell id="P8K-Ryyp-Y_ahrK-BIyI-5" value="Code" style="rounded=1;whiteSpace=wrap;html=1;sketch=1;hachureGap=4;jiggle=2;curveFitting=1;fontFamily=Architects Daughter;fontSource=https%3A%2F%2Ffonts.googleapis.com%2Fcss%3Ffamily%3DArchitects%2BDaughter;arcSize=9;verticalAlign=bottom;" parent="1" vertex="1">
          <mxGeometry x="280" y="403" width="350" height="117" as="geometry" />
        </mxCell>
        <mxCell id="P8K-Ryyp-Y_ahrK-BIyI-6" value="" style="shape=image;verticalLabelPosition=bottom;labelBackgroundColor=default;verticalAlign=top;aspect=fixed;imageAspect=0;image=https://upload.wikimedia.org/wikipedia/commons/thumb/3/39/Kubernetes_logo_without_workmark.svg/1200px-Kubernetes_logo_without_workmark.svg.png;" parent="1" vertex="1">
          <mxGeometry x="220" y="590" width="41.2" height="40" as="geometry" />
        </mxCell>
        <mxCell id="P8K-Ryyp-Y_ahrK-BIyI-7" value="Public&lt;div&gt;Cloud&lt;/div&gt;" style="ellipse;shape=cloud;whiteSpace=wrap;html=1;sketch=1;hachureGap=4;jiggle=2;curveFitting=1;fontFamily=Architects Daughter;fontSource=https%3A%2F%2Ffonts.googleapis.com%2Fcss%3Ffamily%3DArchitects%2BDaughter;fillColor=#dae8fc;gradientColor=#7ea6e0;strokeColor=#6c8ebf;" parent="1" vertex="1">
          <mxGeometry x="150" y="645" width="90" height="60" as="geometry" />
        </mxCell>
        <mxCell id="P8K-Ryyp-Y_ahrK-BIyI-8" value="" style="image;sketch=0;aspect=fixed;html=1;points=[];align=center;fontSize=12;image=img/lib/mscae/Docker.svg;hachureGap=4;jiggle=2;curveFitting=1;fontFamily=Architects Daughter;fontSource=https%3A%2F%2Ffonts.googleapis.com%2Fcss%3Ffamily%3DArchitects%2BDaughter;" parent="1" vertex="1">
          <mxGeometry x="250" y="530" width="50" height="41" as="geometry" />
        </mxCell>
        <mxCell id="P8K-Ryyp-Y_ahrK-BIyI-9" value="" style="sketch=0;outlineConnect=0;fontColor=#232F3E;gradientColor=none;fillColor=#232F3D;strokeColor=none;dashed=0;verticalLabelPosition=bottom;verticalAlign=top;align=center;html=1;fontSize=12;fontStyle=0;aspect=fixed;pointerEvents=1;shape=mxgraph.aws4.source_code;hachureGap=4;jiggle=2;curveFitting=1;fontFamily=Architects Daughter;fontSource=https%3A%2F%2Ffonts.googleapis.com%2Fcss%3Ffamily%3DArchitects%2BDaughter;" parent="1" vertex="1">
          <mxGeometry x="290" y="480" width="20.46" height="28" as="geometry" />
        </mxCell>
        <mxCell id="P8K-Ryyp-Y_ahrK-BIyI-10" value="&lt;u&gt;Cloud Native Application Protection Platform&lt;/u&gt;" style="text;html=1;align=center;verticalAlign=middle;whiteSpace=wrap;rounded=0;fontFamily=Architects Daughter;fontSource=https%3A%2F%2Ffonts.googleapis.com%2Fcss%3Ffamily%3DArchitects%2BDaughter;fontSize=16;" parent="1" vertex="1">
          <mxGeometry x="270" y="280" width="370" height="30" as="geometry" />
        </mxCell>
        <mxCell id="P8K-Ryyp-Y_ahrK-BIyI-18" value="CIEM" style="rounded=1;whiteSpace=wrap;html=1;sketch=1;hachureGap=4;jiggle=2;curveFitting=1;fontFamily=Architects Daughter;fontSource=https%3A%2F%2Ffonts.googleapis.com%2Fcss%3Ffamily%3DArchitects%2BDaughter;arcSize=50;fillColor=#f5f5f5;strokeColor=#666666;gradientColor=#b3b3b3;" parent="1" vertex="1">
          <mxGeometry x="220" y="722" width="60" height="20" as="geometry" />
        </mxCell>
        <mxCell id="P8K-Ryyp-Y_ahrK-BIyI-19" value="DSPM" style="rounded=1;whiteSpace=wrap;html=1;sketch=1;hachureGap=4;jiggle=2;curveFitting=1;fontFamily=Architects Daughter;fontSource=https%3A%2F%2Ffonts.googleapis.com%2Fcss%3Ffamily%3DArchitects%2BDaughter;arcSize=50;fillColor=#f5f5f5;strokeColor=#666666;gradientColor=#b3b3b3;" parent="1" vertex="1">
          <mxGeometry x="220" y="749" width="60" height="20" as="geometry" />
        </mxCell>
        <mxCell id="P8K-Ryyp-Y_ahrK-BIyI-20" value="Cloud Application&amp;nbsp;&lt;span style=&quot;background-color: initial;&quot;&gt;Security&lt;/span&gt;&lt;div&gt;(DevSecOps Use Case)&lt;/div&gt;" style="rounded=1;whiteSpace=wrap;html=1;sketch=1;hachureGap=4;jiggle=2;curveFitting=1;fontFamily=Architects Daughter;fontSource=https%3A%2F%2Ffonts.googleapis.com%2Fcss%3Ffamily%3DArchitects%2BDaughter;arcSize=50;fillColor=#f5f5f5;strokeColor=#666666;gradientColor=#b3b3b3;" parent="1" vertex="1">
          <mxGeometry x="402.75" y="420" width="170" height="40" as="geometry" />
        </mxCell>
        <mxCell id="P8K-Ryyp-Y_ahrK-BIyI-25" value="" style="html=1;shadow=0;dashed=0;align=center;verticalAlign=middle;shape=mxgraph.arrows2.bendArrow;dy=5.82;dx=24.41;notch=0;arrowHead=24.24;rounded=1;sketch=1;hachureGap=4;jiggle=2;curveFitting=1;fontFamily=Architects Daughter;fontSource=https%3A%2F%2Ffonts.googleapis.com%2Fcss%3Ffamily%3DArchitects%2BDaughter;flipV=1;fillColor=#ffcd28;strokeColor=#d79b00;gradientColor=#ffa500;" parent="1" vertex="1">
          <mxGeometry x="495" y="565" width="60" height="75" as="geometry" />
        </mxCell>
        <mxCell id="P8K-Ryyp-Y_ahrK-BIyI-24" value="" style="html=1;shadow=0;dashed=0;align=center;verticalAlign=middle;shape=mxgraph.arrows2.bendArrow;dy=5.82;dx=24.41;notch=0;arrowHead=24.24;rounded=1;sketch=1;hachureGap=4;jiggle=2;curveFitting=1;fontFamily=Architects Daughter;fontSource=https%3A%2F%2Ffonts.googleapis.com%2Fcss%3Ffamily%3DArchitects%2BDaughter;flipV=1;fillColor=#ffcd28;strokeColor=#d79b00;gradientColor=#ffa500;" parent="1" vertex="1">
          <mxGeometry x="495" y="505" width="60" height="75" as="geometry" />
        </mxCell>
        <mxCell id="P8K-Ryyp-Y_ahrK-BIyI-23" value="" style="html=1;shadow=0;dashed=0;align=center;verticalAlign=middle;shape=mxgraph.arrows2.bendArrow;dy=5.82;dx=24.41;notch=0;arrowHead=24.24;rounded=1;sketch=1;hachureGap=4;jiggle=2;curveFitting=1;fontFamily=Architects Daughter;fontSource=https%3A%2F%2Ffonts.googleapis.com%2Fcss%3Ffamily%3DArchitects%2BDaughter;flipV=1;fillColor=#ffcd28;strokeColor=#d79b00;gradientColor=#ffa500;" parent="1" vertex="1">
          <mxGeometry x="495" y="465" width="60" height="55" as="geometry" />
        </mxCell>
        <mxCell id="P8K-Ryyp-Y_ahrK-BIyI-26" value="" style="rounded=1;whiteSpace=wrap;html=1;sketch=1;hachureGap=4;jiggle=2;curveFitting=1;fontFamily=Architects Daughter;fontSource=https%3A%2F%2Ffonts.googleapis.com%2Fcss%3Ffamily%3DArchitects%2BDaughter;fillColor=#dae8fc;gradientColor=#7ea6e0;strokeColor=#6c8ebf;" parent="1" vertex="1">
          <mxGeometry x="560" y="520" width="60" height="140" as="geometry" />
        </mxCell>
        <mxCell id="P8K-Ryyp-Y_ahrK-BIyI-27" value="App" style="rounded=1;whiteSpace=wrap;html=1;sketch=1;hachureGap=4;jiggle=2;curveFitting=1;fontFamily=Architects Daughter;fontSource=https%3A%2F%2Ffonts.googleapis.com%2Fcss%3Ffamily%3DArchitects%2BDaughter;fillColor=#fff2cc;gradientColor=#ffd966;strokeColor=#d6b656;" parent="1" vertex="1">
          <mxGeometry x="570" y="541" width="40" height="30" as="geometry" />
        </mxCell>
        <mxCell id="P8K-Ryyp-Y_ahrK-BIyI-28" value="App" style="rounded=1;whiteSpace=wrap;html=1;sketch=1;hachureGap=4;jiggle=2;curveFitting=1;fontFamily=Architects Daughter;fontSource=https%3A%2F%2Ffonts.googleapis.com%2Fcss%3Ffamily%3DArchitects%2BDaughter;fillColor=#fff2cc;gradientColor=#ffd966;strokeColor=#d6b656;" parent="1" vertex="1">
          <mxGeometry x="570" y="580" width="40" height="30" as="geometry" />
        </mxCell>
        <mxCell id="P8K-Ryyp-Y_ahrK-BIyI-29" value="App" style="rounded=1;whiteSpace=wrap;html=1;sketch=1;hachureGap=4;jiggle=2;curveFitting=1;fontFamily=Architects Daughter;fontSource=https%3A%2F%2Ffonts.googleapis.com%2Fcss%3Ffamily%3DArchitects%2BDaughter;fillColor=#fff2cc;gradientColor=#ffd966;strokeColor=#d6b656;" parent="1" vertex="1">
          <mxGeometry x="570" y="620" width="40" height="30" as="geometry" />
        </mxCell>
        <mxCell id="P8K-Ryyp-Y_ahrK-BIyI-31" style="edgeStyle=orthogonalEdgeStyle;rounded=0;hachureGap=4;orthogonalLoop=1;jettySize=auto;html=1;exitX=0.5;exitY=1;exitDx=0;exitDy=0;exitPerimeter=0;entryX=0.5;entryY=0;entryDx=0;entryDy=0;fontFamily=Architects Daughter;fontSource=https%3A%2F%2Ffonts.googleapis.com%2Fcss%3Ffamily%3DArchitects%2BDaughter;flowAnimation=1;dashed=1;dashPattern=1 4;" parent="1" source="P8K-Ryyp-Y_ahrK-BIyI-30" target="P8K-Ryyp-Y_ahrK-BIyI-27" edge="1">
          <mxGeometry relative="1" as="geometry" />
        </mxCell>
        <mxCell id="P8K-Ryyp-Y_ahrK-BIyI-30" value="" style="sketch=0;aspect=fixed;pointerEvents=1;shadow=0;dashed=0;html=1;strokeColor=none;labelPosition=center;verticalLabelPosition=bottom;verticalAlign=top;align=center;fillColor=#00188D;shape=mxgraph.mscae.enterprise.code_file;hachureGap=4;jiggle=2;curveFitting=1;fontFamily=Architects Daughter;fontSource=https%3A%2F%2Ffonts.googleapis.com%2Fcss%3Ffamily%3DArchitects%2BDaughter;" parent="1" vertex="1">
          <mxGeometry x="572.75" y="472.8" width="34.5" height="35.2" as="geometry" />
        </mxCell>
        <mxCell id="P8K-Ryyp-Y_ahrK-BIyI-36" value="Internet" style="ellipse;shape=cloud;whiteSpace=wrap;html=1;sketch=1;hachureGap=4;jiggle=2;curveFitting=1;fontFamily=Architects Daughter;fontSource=https%3A%2F%2Ffonts.googleapis.com%2Fcss%3Ffamily%3DArchitects%2BDaughter;fillColor=#d5e8d4;gradientColor=#97d077;strokeColor=#82b366;" parent="1" vertex="1">
          <mxGeometry x="504" y="705" width="90" height="60" as="geometry" />
        </mxCell>
        <mxCell id="P8K-Ryyp-Y_ahrK-BIyI-39" style="edgeStyle=orthogonalEdgeStyle;curved=1;rounded=0;hachureGap=4;orthogonalLoop=1;jettySize=auto;html=1;entryX=0.5;entryY=1;entryDx=0;entryDy=0;dashed=1;dashPattern=1 4;strokeColor=default;align=center;verticalAlign=middle;fontFamily=Architects Daughter;fontSource=https%3A%2F%2Ffonts.googleapis.com%2Fcss%3Ffamily%3DArchitects%2BDaughter;fontSize=11;fontColor=default;labelBackgroundColor=default;endArrow=classic;flowAnimation=1;exitX=0.625;exitY=0.2;exitDx=0;exitDy=0;exitPerimeter=0;" parent="1" source="P8K-Ryyp-Y_ahrK-BIyI-36" target="P8K-Ryyp-Y_ahrK-BIyI-26" edge="1">
          <mxGeometry relative="1" as="geometry" />
        </mxCell>
        <mxCell id="P8K-Ryyp-Y_ahrK-BIyI-42" style="edgeStyle=orthogonalEdgeStyle;curved=1;rounded=0;hachureGap=4;orthogonalLoop=1;jettySize=auto;html=1;exitX=0;exitY=0.75;exitDx=0;exitDy=0;entryX=0.88;entryY=0.25;entryDx=0;entryDy=0;entryPerimeter=0;strokeColor=default;align=center;verticalAlign=middle;fontFamily=Architects Daughter;fontSource=https%3A%2F%2Ffonts.googleapis.com%2Fcss%3Ffamily%3DArchitects%2BDaughter;fontSize=11;fontColor=default;labelBackgroundColor=default;endArrow=classic;flowAnimation=1;dashed=1;" parent="1" source="P8K-Ryyp-Y_ahrK-BIyI-13" target="P8K-Ryyp-Y_ahrK-BIyI-7" edge="1">
          <mxGeometry relative="1" as="geometry" />
        </mxCell>
        <mxCell id="P8K-Ryyp-Y_ahrK-BIyI-45" style="edgeStyle=orthogonalEdgeStyle;curved=1;rounded=0;hachureGap=4;orthogonalLoop=1;jettySize=auto;html=1;exitX=0.84;exitY=0.42;exitDx=0;exitDy=0;entryX=1.005;entryY=0.812;entryDx=0;entryDy=0;entryPerimeter=0;strokeColor=default;align=center;verticalAlign=middle;fontFamily=Architects Daughter;fontSource=https%3A%2F%2Ffonts.googleapis.com%2Fcss%3Ffamily%3DArchitects%2BDaughter;fontSize=11;fontColor=default;labelBackgroundColor=default;endArrow=classic;flowAnimation=1;exitPerimeter=0;dashed=1;" parent="1" source="P8K-Ryyp-Y_ahrK-BIyI-14" target="P8K-Ryyp-Y_ahrK-BIyI-26" edge="1">
          <mxGeometry relative="1" as="geometry" />
        </mxCell>
        <mxCell id="P8K-Ryyp-Y_ahrK-BIyI-47" style="edgeStyle=orthogonalEdgeStyle;curved=1;rounded=0;hachureGap=4;orthogonalLoop=1;jettySize=auto;html=1;exitX=0.5;exitY=1;exitDx=0;exitDy=0;entryX=1;entryY=0.5;entryDx=0;entryDy=0;strokeColor=default;align=center;verticalAlign=middle;fontFamily=Architects Daughter;fontSource=https%3A%2F%2Ffonts.googleapis.com%2Fcss%3Ffamily%3DArchitects%2BDaughter;fontSize=11;fontColor=default;labelBackgroundColor=default;endArrow=classic;flowAnimation=1;dashed=1;" parent="1" source="P8K-Ryyp-Y_ahrK-BIyI-17" target="P8K-Ryyp-Y_ahrK-BIyI-19" edge="1">
          <mxGeometry relative="1" as="geometry" />
        </mxCell>
        <mxCell id="P8K-Ryyp-Y_ahrK-BIyI-49" style="edgeStyle=orthogonalEdgeStyle;curved=1;rounded=0;hachureGap=4;orthogonalLoop=1;jettySize=auto;html=1;entryX=1;entryY=0.5;entryDx=0;entryDy=0;strokeColor=default;align=center;verticalAlign=middle;fontFamily=Architects Daughter;fontSource=https%3A%2F%2Ffonts.googleapis.com%2Fcss%3Ffamily%3DArchitects%2BDaughter;fontSize=11;fontColor=default;labelBackgroundColor=default;endArrow=classic;flowAnimation=1;exitX=0.5;exitY=1;exitDx=0;exitDy=0;dashed=1;" parent="1" source="P8K-Ryyp-Y_ahrK-BIyI-17" target="P8K-Ryyp-Y_ahrK-BIyI-18" edge="1">
          <mxGeometry relative="1" as="geometry" />
        </mxCell>
        <mxCell id="P8K-Ryyp-Y_ahrK-BIyI-50" style="edgeStyle=orthogonalEdgeStyle;curved=1;rounded=0;hachureGap=4;orthogonalLoop=1;jettySize=auto;html=1;exitX=0;exitY=0.5;exitDx=0;exitDy=0;entryX=0.507;entryY=0.964;entryDx=0;entryDy=0;entryPerimeter=0;strokeColor=default;align=center;verticalAlign=middle;fontFamily=Architects Daughter;fontSource=https%3A%2F%2Ffonts.googleapis.com%2Fcss%3Ffamily%3DArchitects%2BDaughter;fontSize=11;fontColor=default;labelBackgroundColor=default;endArrow=classic;flowAnimation=1;dashed=1;" parent="1" source="P8K-Ryyp-Y_ahrK-BIyI-18" target="P8K-Ryyp-Y_ahrK-BIyI-7" edge="1">
          <mxGeometry relative="1" as="geometry" />
        </mxCell>
        <mxCell id="P8K-Ryyp-Y_ahrK-BIyI-51" style="edgeStyle=orthogonalEdgeStyle;curved=1;rounded=0;hachureGap=4;orthogonalLoop=1;jettySize=auto;html=1;exitX=0;exitY=0.5;exitDx=0;exitDy=0;entryX=0.382;entryY=0.905;entryDx=0;entryDy=0;entryPerimeter=0;strokeColor=default;align=center;verticalAlign=middle;fontFamily=Architects Daughter;fontSource=https%3A%2F%2Ffonts.googleapis.com%2Fcss%3Ffamily%3DArchitects%2BDaughter;fontSize=11;fontColor=default;labelBackgroundColor=default;endArrow=classic;flowAnimation=1;dashed=1;" parent="1" source="P8K-Ryyp-Y_ahrK-BIyI-19" target="P8K-Ryyp-Y_ahrK-BIyI-7" edge="1">
          <mxGeometry relative="1" as="geometry" />
        </mxCell>
        <mxCell id="P8K-Ryyp-Y_ahrK-BIyI-52" style="edgeStyle=orthogonalEdgeStyle;curved=1;rounded=0;hachureGap=4;orthogonalLoop=1;jettySize=auto;html=1;entryX=1;entryY=0.5;entryDx=0;entryDy=0;strokeColor=default;align=center;verticalAlign=middle;fontFamily=Architects Daughter;fontSource=https%3A%2F%2Ffonts.googleapis.com%2Fcss%3Ffamily%3DArchitects%2BDaughter;fontSize=11;fontColor=default;labelBackgroundColor=default;endArrow=classic;flowAnimation=1;dashed=1;" parent="1" source="P8K-Ryyp-Y_ahrK-BIyI-14" target="P8K-Ryyp-Y_ahrK-BIyI-28" edge="1">
          <mxGeometry relative="1" as="geometry" />
        </mxCell>
        <mxCell id="P8K-Ryyp-Y_ahrK-BIyI-53" style="edgeStyle=orthogonalEdgeStyle;curved=1;rounded=0;hachureGap=4;orthogonalLoop=1;jettySize=auto;html=1;exitX=1;exitY=0.5;exitDx=0;exitDy=0;entryX=0.5;entryY=0;entryDx=0;entryDy=0;entryPerimeter=0;strokeColor=default;align=center;verticalAlign=middle;fontFamily=Architects Daughter;fontSource=https%3A%2F%2Ffonts.googleapis.com%2Fcss%3Ffamily%3DArchitects%2BDaughter;fontSize=11;fontColor=default;labelBackgroundColor=default;endArrow=classic;flowAnimation=1;dashed=1;" parent="1" source="P8K-Ryyp-Y_ahrK-BIyI-20" target="P8K-Ryyp-Y_ahrK-BIyI-30" edge="1">
          <mxGeometry relative="1" as="geometry" />
        </mxCell>
        <mxCell id="P8K-Ryyp-Y_ahrK-BIyI-13" value="" style="shape=trapezoid;perimeter=trapezoidPerimeter;whiteSpace=wrap;html=1;fixedSize=1;sketch=1;hachureGap=4;jiggle=2;curveFitting=1;fontFamily=Architects Daughter;fontSource=https%3A%2F%2Ffonts.googleapis.com%2Fcss%3Ffamily%3DArchitects%2BDaughter;size=30;fillColor=#f5f5f5;strokeColor=#666666;gradientColor=#b3b3b3;" parent="1" vertex="1">
          <mxGeometry x="300" y="545" width="90" height="165" as="geometry" />
        </mxCell>
        <mxCell id="P8K-Ryyp-Y_ahrK-BIyI-17" value="CSPM" style="text;html=1;align=center;verticalAlign=middle;whiteSpace=wrap;rounded=0;fontFamily=Architects Daughter;fontSource=https%3A%2F%2Ffonts.googleapis.com%2Fcss%3Ffamily%3DArchitects%2BDaughter;" parent="1" vertex="1">
          <mxGeometry x="315" y="677" width="60" height="33" as="geometry" />
        </mxCell>
        <mxCell id="P8K-Ryyp-Y_ahrK-BIyI-32" value="Cloud&lt;div&gt;Outside-in&lt;/div&gt;&lt;div&gt;Security&lt;/div&gt;" style="text;html=1;align=center;verticalAlign=middle;whiteSpace=wrap;rounded=0;fontFamily=Architects Daughter;fontSource=https%3A%2F%2Ffonts.googleapis.com%2Fcss%3Ffamily%3DArchitects%2BDaughter;" parent="1" vertex="1">
          <mxGeometry x="315" y="626" width="60" height="33" as="geometry" />
        </mxCell>
        <mxCell id="P8K-Ryyp-Y_ahrK-BIyI-14" value="" style="shape=trapezoid;perimeter=trapezoidPerimeter;whiteSpace=wrap;html=1;fixedSize=1;sketch=1;hachureGap=4;jiggle=2;curveFitting=1;fontFamily=Architects Daughter;fontSource=https%3A%2F%2Ffonts.googleapis.com%2Fcss%3Ffamily%3DArchitects%2BDaughter;rotation=-180;size=30;fillColor=#f5f5f5;strokeColor=#666666;gradientColor=#b3b3b3;" parent="1" vertex="1">
          <mxGeometry x="660" y="532.5" width="90" height="140" as="geometry" />
        </mxCell>
        <mxCell id="P8K-Ryyp-Y_ahrK-BIyI-16" value="CWPP" style="text;html=1;align=center;verticalAlign=middle;whiteSpace=wrap;rounded=0;fontFamily=Architects Daughter;fontSource=https%3A%2F%2Ffonts.googleapis.com%2Fcss%3Ffamily%3DArchitects%2BDaughter;" parent="1" vertex="1">
          <mxGeometry x="675" y="532.5" width="60" height="32.30769230769231" as="geometry" />
        </mxCell>
        <mxCell id="P8K-Ryyp-Y_ahrK-BIyI-33" value="Cloud&lt;div&gt;Inside-Out&lt;/div&gt;&lt;div&gt;Security&lt;/div&gt;" style="text;html=1;align=center;verticalAlign=middle;whiteSpace=wrap;rounded=0;fontFamily=Architects Daughter;fontSource=https%3A%2F%2Ffonts.googleapis.com%2Fcss%3Ffamily%3DArchitects%2BDaughter;" parent="1" vertex="1">
          <mxGeometry x="675" y="576.6538461538462" width="60" height="32.30769230769231" as="geometry" />
        </mxCell>
      </root>
    </mxGraphModel>
  </diagram>
  <diagram id="UzTkAVYDSA-6MrIQcVfI" name="CNAPP">
    <mxGraphModel dx="1624" dy="1268" grid="0" gridSize="10" guides="1" tooltips="1" connect="1" arrows="1" fold="1" page="0" pageScale="1" pageWidth="850" pageHeight="1100" math="0" shadow="0">
      <root>
        <mxCell id="0" />
        <mxCell id="1" parent="0" />
        <mxCell id="aqTeQGS8Rh9cY50qbYlt-70" style="edgeStyle=orthogonalEdgeStyle;rounded=0;hachureGap=4;orthogonalLoop=1;jettySize=auto;html=1;exitX=1;exitY=0.5;exitDx=0;exitDy=0;entryX=0;entryY=0.5;entryDx=0;entryDy=0;fontFamily=Architects Daughter;fontSource=https%3A%2F%2Ffonts.googleapis.com%2Fcss%3Ffamily%3DArchitects%2BDaughter;flowAnimation=1;strokeWidth=3;strokeColor=#CC00CC;" parent="1" source="6h2Z5ipHWYU61TAue60H-1" target="6h2Z5ipHWYU61TAue60H-2" edge="1">
          <mxGeometry relative="1" as="geometry" />
        </mxCell>
        <mxCell id="6h2Z5ipHWYU61TAue60H-1" value="Agentless" style="rounded=1;whiteSpace=wrap;html=1;sketch=1;hachureGap=4;jiggle=2;curveFitting=1;fontFamily=Architects Daughter;fontSource=https%3A%2F%2Ffonts.googleapis.com%2Fcss%3Ffamily%3DArchitects%2BDaughter;fontSize=22;fillColor=#f8cecc;strokeColor=#b85450;" parent="1" vertex="1">
          <mxGeometry x="367" y="370" width="200" height="60" as="geometry" />
        </mxCell>
        <mxCell id="aqTeQGS8Rh9cY50qbYlt-71" style="edgeStyle=orthogonalEdgeStyle;rounded=0;hachureGap=4;orthogonalLoop=1;jettySize=auto;html=1;entryX=0.5;entryY=0;entryDx=0;entryDy=0;strokeColor=#CC00CC;strokeWidth=3;align=center;verticalAlign=middle;fontFamily=Architects Daughter;fontSource=https%3A%2F%2Ffonts.googleapis.com%2Fcss%3Ffamily%3DArchitects%2BDaughter;fontSize=11;fontColor=default;labelBackgroundColor=default;endArrow=classic;flowAnimation=1;" parent="1" source="6h2Z5ipHWYU61TAue60H-2" target="6h2Z5ipHWYU61TAue60H-4" edge="1">
          <mxGeometry relative="1" as="geometry" />
        </mxCell>
        <mxCell id="6h2Z5ipHWYU61TAue60H-2" value="Agent" style="rounded=1;whiteSpace=wrap;html=1;sketch=1;hachureGap=4;jiggle=2;curveFitting=1;fontFamily=Architects Daughter;fontSource=https%3A%2F%2Ffonts.googleapis.com%2Fcss%3Ffamily%3DArchitects%2BDaughter;fontSize=22;fillColor=#d5e8d4;strokeColor=#82b366;" parent="1" vertex="1">
          <mxGeometry x="660.0000000000001" y="370" width="200" height="60" as="geometry" />
        </mxCell>
        <mxCell id="aqTeQGS8Rh9cY50qbYlt-75" style="edgeStyle=orthogonalEdgeStyle;rounded=0;hachureGap=4;orthogonalLoop=1;jettySize=auto;html=1;exitX=0.5;exitY=0;exitDx=0;exitDy=0;entryX=0.5;entryY=1;entryDx=0;entryDy=0;strokeColor=#CC00CC;strokeWidth=3;align=center;verticalAlign=middle;fontFamily=Architects Daughter;fontSource=https%3A%2F%2Ffonts.googleapis.com%2Fcss%3Ffamily%3DArchitects%2BDaughter;fontSize=11;fontColor=default;labelBackgroundColor=default;endArrow=classic;flowAnimation=1;" parent="1" source="6h2Z5ipHWYU61TAue60H-3" target="6h2Z5ipHWYU61TAue60H-1" edge="1">
          <mxGeometry relative="1" as="geometry" />
        </mxCell>
        <mxCell id="6h2Z5ipHWYU61TAue60H-3" value="Regular Base" style="rounded=1;whiteSpace=wrap;html=1;sketch=1;hachureGap=4;jiggle=2;curveFitting=1;fontFamily=Architects Daughter;fontSource=https%3A%2F%2Ffonts.googleapis.com%2Fcss%3Ffamily%3DArchitects%2BDaughter;fontSize=20;fillColor=#f8cecc;strokeColor=#b85450;" parent="1" vertex="1">
          <mxGeometry x="367" y="480" width="200" height="40" as="geometry" />
        </mxCell>
        <mxCell id="aqTeQGS8Rh9cY50qbYlt-72" style="edgeStyle=orthogonalEdgeStyle;rounded=0;hachureGap=4;orthogonalLoop=1;jettySize=auto;html=1;entryX=0.5;entryY=0;entryDx=0;entryDy=0;strokeColor=#CC00CC;strokeWidth=3;align=center;verticalAlign=middle;fontFamily=Architects Daughter;fontSource=https%3A%2F%2Ffonts.googleapis.com%2Fcss%3Ffamily%3DArchitects%2BDaughter;fontSize=11;fontColor=default;labelBackgroundColor=default;endArrow=classic;flowAnimation=1;" parent="1" source="6h2Z5ipHWYU61TAue60H-4" target="6h2Z5ipHWYU61TAue60H-6" edge="1">
          <mxGeometry relative="1" as="geometry" />
        </mxCell>
        <mxCell id="6h2Z5ipHWYU61TAue60H-4" value="Instant" style="rounded=1;whiteSpace=wrap;html=1;sketch=1;hachureGap=4;jiggle=2;curveFitting=1;fontFamily=Architects Daughter;fontSource=https%3A%2F%2Ffonts.googleapis.com%2Fcss%3Ffamily%3DArchitects%2BDaughter;fontSize=20;fillColor=#d5e8d4;strokeColor=#82b366;" parent="1" vertex="1">
          <mxGeometry x="660.0000000000001" y="480" width="200" height="40" as="geometry" />
        </mxCell>
        <mxCell id="aqTeQGS8Rh9cY50qbYlt-87" style="edgeStyle=orthogonalEdgeStyle;rounded=0;hachureGap=4;orthogonalLoop=1;jettySize=auto;html=1;entryX=0;entryY=0.5;entryDx=0;entryDy=0;strokeColor=#CC00CC;strokeWidth=3;align=center;verticalAlign=middle;fontFamily=Architects Daughter;fontSource=https%3A%2F%2Ffonts.googleapis.com%2Fcss%3Ffamily%3DArchitects%2BDaughter;fontSize=11;fontColor=default;labelBackgroundColor=default;endArrow=classic;flowAnimation=1;" parent="1" source="6h2Z5ipHWYU61TAue60H-6" target="aqTeQGS8Rh9cY50qbYlt-82" edge="1">
          <mxGeometry relative="1" as="geometry" />
        </mxCell>
        <mxCell id="6h2Z5ipHWYU61TAue60H-6" value="Detection + Prevention" style="rounded=1;whiteSpace=wrap;html=1;sketch=1;hachureGap=4;jiggle=2;curveFitting=1;fontFamily=Architects Daughter;fontSource=https%3A%2F%2Ffonts.googleapis.com%2Fcss%3Ffamily%3DArchitects%2BDaughter;fontSize=20;fillColor=#d5e8d4;strokeColor=#82b366;" parent="1" vertex="1">
          <mxGeometry x="660.0000000000001" y="590" width="200" height="40" as="geometry" />
        </mxCell>
        <mxCell id="aqTeQGS8Rh9cY50qbYlt-73" style="edgeStyle=orthogonalEdgeStyle;rounded=0;hachureGap=4;orthogonalLoop=1;jettySize=auto;html=1;exitX=1;exitY=0.5;exitDx=0;exitDy=0;strokeColor=#CC00CC;strokeWidth=3;align=center;verticalAlign=middle;fontFamily=Architects Daughter;fontSource=https%3A%2F%2Ffonts.googleapis.com%2Fcss%3Ffamily%3DArchitects%2BDaughter;fontSize=11;fontColor=default;labelBackgroundColor=default;endArrow=classic;flowAnimation=1;" parent="1" source="aqTeQGS8Rh9cY50qbYlt-64" target="6h2Z5ipHWYU61TAue60H-1" edge="1">
          <mxGeometry relative="1" as="geometry" />
        </mxCell>
        <mxCell id="aqTeQGS8Rh9cY50qbYlt-79" value="" style="shape=image;verticalLabelPosition=bottom;labelBackgroundColor=default;verticalAlign=top;aspect=fixed;imageAspect=0;image=https://www.pngall.com/wp-content/uploads/2016/06/6a00d83451b36c69e20168eaa60893970c-600wi.png;" parent="1" vertex="1">
          <mxGeometry x="709.9999999999999" y="660" width="100" height="100" as="geometry" />
        </mxCell>
        <mxCell id="aqTeQGS8Rh9cY50qbYlt-80" value="" style="shadow=0;dashed=0;html=1;strokeColor=none;fillColor=#4495D1;labelPosition=center;verticalLabelPosition=bottom;verticalAlign=top;align=center;outlineConnect=0;shape=mxgraph.veeam.2d.alert;hachureGap=4;fontFamily=Architects Daughter;fontSource=https%3A%2F%2Ffonts.googleapis.com%2Fcss%3Ffamily%3DArchitects%2BDaughter;fontSize=11;fontColor=default;labelBackgroundColor=default;" parent="1" vertex="1">
          <mxGeometry x="430" y="667.5" width="85" height="85" as="geometry" />
        </mxCell>
        <mxCell id="aqTeQGS8Rh9cY50qbYlt-82" value="Code Level Remediation" style="rounded=1;whiteSpace=wrap;html=1;sketch=1;hachureGap=4;jiggle=2;curveFitting=1;fontFamily=Architects Daughter;fontSource=https%3A%2F%2Ffonts.googleapis.com%2Fcss%3Ffamily%3DArchitects%2BDaughter;fontSize=20;fillColor=#d5e8d4;strokeColor=#82b366;" parent="1" vertex="1">
          <mxGeometry x="940" y="590" width="190" height="40" as="geometry" />
        </mxCell>
        <mxCell id="aqTeQGS8Rh9cY50qbYlt-86" style="edgeStyle=orthogonalEdgeStyle;rounded=0;hachureGap=4;orthogonalLoop=1;jettySize=auto;html=1;entryX=0.5;entryY=1;entryDx=0;entryDy=0;strokeColor=#CC00CC;strokeWidth=3;align=center;verticalAlign=middle;fontFamily=Architects Daughter;fontSource=https%3A%2F%2Ffonts.googleapis.com%2Fcss%3Ffamily%3DArchitects%2BDaughter;fontSize=11;fontColor=default;labelBackgroundColor=default;endArrow=classic;flowAnimation=1;" parent="1" source="aqTeQGS8Rh9cY50qbYlt-84" target="6h2Z5ipHWYU61TAue60H-3" edge="1">
          <mxGeometry relative="1" as="geometry" />
        </mxCell>
        <mxCell id="aqTeQGS8Rh9cY50qbYlt-84" value="Detection" style="rounded=1;whiteSpace=wrap;html=1;sketch=1;hachureGap=4;jiggle=2;curveFitting=1;fontFamily=Architects Daughter;fontSource=https%3A%2F%2Ffonts.googleapis.com%2Fcss%3Ffamily%3DArchitects%2BDaughter;fontSize=20;fillColor=#f8cecc;strokeColor=#b85450;" parent="1" vertex="1">
          <mxGeometry x="367" y="590" width="200" height="40" as="geometry" />
        </mxCell>
        <mxCell id="aqTeQGS8Rh9cY50qbYlt-88" value="" style="shape=image;verticalLabelPosition=bottom;labelBackgroundColor=default;verticalAlign=top;aspect=fixed;imageAspect=0;image=https://cdn-icons-png.flaticon.com/256/517/517858.png;" parent="1" vertex="1">
          <mxGeometry x="985" y="660" width="100" height="100" as="geometry" />
        </mxCell>
        <mxCell id="aqTeQGS8Rh9cY50qbYlt-67" value="CSPM&lt;br style=&quot;font-size: 22px;&quot;&gt;(Cloud Config Security)" style="shape=step;perimeter=stepPerimeter;whiteSpace=wrap;html=1;fixedSize=1;sketch=1;hachureGap=4;jiggle=2;curveFitting=1;fontFamily=Architects Daughter;fontSource=https%3A%2F%2Ffonts.googleapis.com%2Fcss%3Ffamily%3DArchitects%2BDaughter;fontSize=22;fontStyle=1;strokeWidth=2;fillColor=#ffcd28;gradientColor=#ffa500;strokeColor=#d79b00;" parent="1" vertex="1">
          <mxGeometry x="-10" y="242" width="287.5" height="68" as="geometry" />
        </mxCell>
        <mxCell id="aqTeQGS8Rh9cY50qbYlt-68" value="CWPP&lt;div style=&quot;font-size: 22px;&quot;&gt;(Cloud Workload Protection Platform)&lt;/div&gt;" style="shape=step;perimeter=stepPerimeter;whiteSpace=wrap;html=1;fixedSize=1;sketch=1;hachureGap=4;jiggle=2;curveFitting=1;fontFamily=Architects Daughter;fontSource=https%3A%2F%2Ffonts.googleapis.com%2Fcss%3Ffamily%3DArchitects%2BDaughter;fontSize=22;fontStyle=1;strokeWidth=2;fillColor=#ffcd28;gradientColor=#ffa500;strokeColor=#d79b00;" parent="1" vertex="1">
          <mxGeometry x="270" y="242" width="640" height="68" as="geometry" />
        </mxCell>
        <mxCell id="aqTeQGS8Rh9cY50qbYlt-69" value="DSPM&lt;div style=&quot;font-size: 22px;&quot;&gt;(Data Security on Cloud)&lt;/div&gt;" style="shape=step;perimeter=stepPerimeter;whiteSpace=wrap;html=1;fixedSize=1;sketch=1;hachureGap=4;jiggle=2;curveFitting=1;fontFamily=Architects Daughter;fontSource=https%3A%2F%2Ffonts.googleapis.com%2Fcss%3Ffamily%3DArchitects%2BDaughter;fontSize=22;fontStyle=1;strokeWidth=2;fillColor=#ffcd28;gradientColor=#ffa500;strokeColor=#d79b00;" parent="1" vertex="1">
          <mxGeometry x="-10" y="150" width="450" height="68" as="geometry" />
        </mxCell>
        <mxCell id="aqTeQGS8Rh9cY50qbYlt-81" value="CAS&lt;div style=&quot;font-size: 22px;&quot;&gt;(Cloud Code Security)&lt;/div&gt;" style="shape=step;perimeter=stepPerimeter;whiteSpace=wrap;html=1;fixedSize=1;sketch=1;hachureGap=4;jiggle=2;curveFitting=1;fontFamily=Architects Daughter;fontSource=https%3A%2F%2Ffonts.googleapis.com%2Fcss%3Ffamily%3DArchitects%2BDaughter;fontSize=22;fontStyle=1;strokeWidth=2;fillColor=#ffcd28;gradientColor=#ffa500;strokeColor=#d79b00;" parent="1" vertex="1">
          <mxGeometry x="900" y="242" width="280" height="68" as="geometry" />
        </mxCell>
        <mxCell id="aqTeQGS8Rh9cY50qbYlt-64" value="Cloud API Ingession" style="rounded=1;whiteSpace=wrap;html=1;sketch=1;hachureGap=4;jiggle=2;curveFitting=1;fontFamily=Architects Daughter;fontSource=https%3A%2F%2Ffonts.googleapis.com%2Fcss%3Ffamily%3DArchitects%2BDaughter;fontSize=22;fillColor=#f8cecc;strokeColor=#b85450;" parent="1" vertex="1">
          <mxGeometry x="10" y="370" width="237" height="60" as="geometry" />
        </mxCell>
        <mxCell id="aqTeQGS8Rh9cY50qbYlt-74" style="edgeStyle=orthogonalEdgeStyle;rounded=0;hachureGap=4;orthogonalLoop=1;jettySize=auto;html=1;exitX=0.5;exitY=0;exitDx=0;exitDy=0;entryX=0.5;entryY=1;entryDx=0;entryDy=0;strokeColor=#CC00CC;strokeWidth=3;align=center;verticalAlign=middle;fontFamily=Architects Daughter;fontSource=https%3A%2F%2Ffonts.googleapis.com%2Fcss%3Ffamily%3DArchitects%2BDaughter;fontSize=11;fontColor=default;labelBackgroundColor=default;endArrow=classic;flowAnimation=1;" parent="1" source="aqTeQGS8Rh9cY50qbYlt-65" target="aqTeQGS8Rh9cY50qbYlt-64" edge="1">
          <mxGeometry relative="1" as="geometry" />
        </mxCell>
        <mxCell id="aqTeQGS8Rh9cY50qbYlt-65" value="Regular Base or Push Based (Near Real time)" style="rounded=1;whiteSpace=wrap;html=1;sketch=1;hachureGap=4;jiggle=2;curveFitting=1;fontFamily=Architects Daughter;fontSource=https%3A%2F%2Ffonts.googleapis.com%2Fcss%3Ffamily%3DArchitects%2BDaughter;fontSize=20;fillColor=#f8cecc;strokeColor=#b85450;" parent="1" vertex="1">
          <mxGeometry x="10" y="480" width="237" height="40" as="geometry" />
        </mxCell>
        <mxCell id="aqTeQGS8Rh9cY50qbYlt-85" style="edgeStyle=orthogonalEdgeStyle;rounded=0;hachureGap=4;orthogonalLoop=1;jettySize=auto;html=1;entryX=0.5;entryY=1;entryDx=0;entryDy=0;strokeColor=#CC00CC;strokeWidth=3;align=center;verticalAlign=middle;fontFamily=Architects Daughter;fontSource=https%3A%2F%2Ffonts.googleapis.com%2Fcss%3Ffamily%3DArchitects%2BDaughter;fontSize=11;fontColor=default;labelBackgroundColor=default;endArrow=classic;flowAnimation=1;" parent="1" source="aqTeQGS8Rh9cY50qbYlt-83" target="aqTeQGS8Rh9cY50qbYlt-65" edge="1">
          <mxGeometry relative="1" as="geometry" />
        </mxCell>
        <mxCell id="aqTeQGS8Rh9cY50qbYlt-83" value="Detection + Remediation &amp;amp; Cloud Config Level" style="rounded=1;whiteSpace=wrap;html=1;sketch=1;hachureGap=4;jiggle=2;curveFitting=1;fontFamily=Architects Daughter;fontSource=https%3A%2F%2Ffonts.googleapis.com%2Fcss%3Ffamily%3DArchitects%2BDaughter;fontSize=20;fillColor=#f8cecc;strokeColor=#b85450;" parent="1" vertex="1">
          <mxGeometry x="10" y="590" width="237" height="40" as="geometry" />
        </mxCell>
        <mxCell id="aqTeQGS8Rh9cY50qbYlt-91" value="" style="shadow=0;dashed=0;html=1;strokeColor=none;fillColor=#4495D1;labelPosition=center;verticalLabelPosition=bottom;verticalAlign=top;align=center;outlineConnect=0;shape=mxgraph.veeam.2d.alert;hachureGap=4;fontFamily=Architects Daughter;fontSource=https%3A%2F%2Ffonts.googleapis.com%2Fcss%3Ffamily%3DArchitects%2BDaughter;fontSize=11;fontColor=default;labelBackgroundColor=default;" parent="1" vertex="1">
          <mxGeometry x="86" y="667.5" width="85" height="85" as="geometry" />
        </mxCell>
        <mxCell id="aqTeQGS8Rh9cY50qbYlt-92" value="" style="shape=curlyBracket;whiteSpace=wrap;html=1;rounded=1;labelPosition=left;verticalLabelPosition=middle;align=right;verticalAlign=middle;sketch=1;hachureGap=4;jiggle=2;curveFitting=1;fontFamily=Architects Daughter;fontSource=https%3A%2F%2Ffonts.googleapis.com%2Fcss%3Ffamily%3DArchitects%2BDaughter;fontSize=11;fontColor=default;labelBackgroundColor=default;strokeWidth=2;" parent="1" vertex="1">
          <mxGeometry x="-40" y="355" width="20" height="90" as="geometry" />
        </mxCell>
        <mxCell id="aqTeQGS8Rh9cY50qbYlt-93" value="" style="shape=curlyBracket;whiteSpace=wrap;html=1;rounded=1;labelPosition=left;verticalLabelPosition=middle;align=right;verticalAlign=middle;sketch=1;hachureGap=4;jiggle=2;curveFitting=1;fontFamily=Architects Daughter;fontSource=https%3A%2F%2Ffonts.googleapis.com%2Fcss%3Ffamily%3DArchitects%2BDaughter;fontSize=11;fontColor=default;labelBackgroundColor=default;strokeWidth=2;" parent="1" vertex="1">
          <mxGeometry x="-40" y="455" width="20" height="90" as="geometry" />
        </mxCell>
        <mxCell id="aqTeQGS8Rh9cY50qbYlt-94" value="" style="shape=curlyBracket;whiteSpace=wrap;html=1;rounded=1;labelPosition=left;verticalLabelPosition=middle;align=right;verticalAlign=middle;sketch=1;hachureGap=4;jiggle=2;curveFitting=1;fontFamily=Architects Daughter;fontSource=https%3A%2F%2Ffonts.googleapis.com%2Fcss%3Ffamily%3DArchitects%2BDaughter;fontSize=11;fontColor=default;labelBackgroundColor=default;strokeWidth=2;" parent="1" vertex="1">
          <mxGeometry x="-40" y="565" width="20" height="185" as="geometry" />
        </mxCell>
        <mxCell id="aqTeQGS8Rh9cY50qbYlt-95" value="Approach" style="text;html=1;align=center;verticalAlign=middle;whiteSpace=wrap;rounded=0;fontFamily=Architects Daughter;fontSource=https%3A%2F%2Ffonts.googleapis.com%2Fcss%3Ffamily%3DArchitects%2BDaughter;fontSize=28;fontColor=default;labelBackgroundColor=default;fontStyle=1" parent="1" vertex="1">
          <mxGeometry x="-140" y="385" width="60" height="30" as="geometry" />
        </mxCell>
        <mxCell id="aqTeQGS8Rh9cY50qbYlt-96" value="MTTD/&lt;div&gt;MTTR&lt;/div&gt;" style="text;html=1;align=center;verticalAlign=middle;whiteSpace=wrap;rounded=0;fontFamily=Architects Daughter;fontSource=https%3A%2F%2Ffonts.googleapis.com%2Fcss%3Ffamily%3DArchitects%2BDaughter;fontSize=28;fontColor=default;labelBackgroundColor=default;fontStyle=1" parent="1" vertex="1">
          <mxGeometry x="-140" y="485" width="60" height="30" as="geometry" />
        </mxCell>
        <mxCell id="aqTeQGS8Rh9cY50qbYlt-97" value="Objective" style="text;html=1;align=center;verticalAlign=middle;whiteSpace=wrap;rounded=0;fontFamily=Architects Daughter;fontSource=https%3A%2F%2Ffonts.googleapis.com%2Fcss%3Ffamily%3DArchitects%2BDaughter;fontSize=28;fontColor=default;labelBackgroundColor=default;fontStyle=1" parent="1" vertex="1">
          <mxGeometry x="-140" y="637.5" width="60" height="30" as="geometry" />
        </mxCell>
        <mxCell id="aqTeQGS8Rh9cY50qbYlt-100" value="Regular Base or In Every Build" style="rounded=1;whiteSpace=wrap;html=1;sketch=1;hachureGap=4;jiggle=2;curveFitting=1;fontFamily=Architects Daughter;fontSource=https%3A%2F%2Ffonts.googleapis.com%2Fcss%3Ffamily%3DArchitects%2BDaughter;fontSize=20;fillColor=#f5f5f5;fontColor=#333333;strokeColor=#666666;" parent="1" vertex="1">
          <mxGeometry x="940" y="470" width="200" height="70" as="geometry" />
        </mxCell>
        <mxCell id="aqTeQGS8Rh9cY50qbYlt-101" value="Repo Integraiton or CI/CD Pipeline Integration" style="rounded=1;whiteSpace=wrap;html=1;sketch=1;hachureGap=4;jiggle=2;curveFitting=1;fontFamily=Architects Daughter;fontSource=https%3A%2F%2Ffonts.googleapis.com%2Fcss%3Ffamily%3DArchitects%2BDaughter;fontSize=20;fillColor=#f5f5f5;fontColor=#333333;strokeColor=#666666;" parent="1" vertex="1">
          <mxGeometry x="940" y="360" width="200" height="80" as="geometry" />
        </mxCell>
        <mxCell id="aqTeQGS8Rh9cY50qbYlt-102" value="CIEM&lt;br style=&quot;font-size: 22px;&quot;&gt;(Cloud IAM Security)" style="shape=step;perimeter=stepPerimeter;whiteSpace=wrap;html=1;fixedSize=1;sketch=1;hachureGap=4;jiggle=2;curveFitting=1;fontFamily=Architects Daughter;fontSource=https%3A%2F%2Ffonts.googleapis.com%2Fcss%3Ffamily%3DArchitects%2BDaughter;fontSize=22;fontStyle=1;strokeWidth=2;fillColor=#ffcd28;gradientColor=#ffa500;strokeColor=#d79b00;" parent="1" vertex="1">
          <mxGeometry x="-10" y="60" width="287.5" height="68" as="geometry" />
        </mxCell>
        <mxCell id="aqTeQGS8Rh9cY50qbYlt-103" value="CNAPP&lt;div&gt;(Full Cloud Application Security)&lt;/div&gt;" style="shape=step;perimeter=stepPerimeter;whiteSpace=wrap;html=1;fixedSize=1;sketch=1;hachureGap=4;jiggle=2;curveFitting=1;fontFamily=Architects Daughter;fontSource=https%3A%2F%2Ffonts.googleapis.com%2Fcss%3Ffamily%3DArchitects%2BDaughter;fontSize=22;fontStyle=1;strokeWidth=2;fillColor=#fff2cc;gradientColor=#ffd966;strokeColor=#d6b656;" parent="1" vertex="1">
          <mxGeometry x="-10" y="-30" width="1200" height="68" as="geometry" />
        </mxCell>
        <mxCell id="aqTeQGS8Rh9cY50qbYlt-104" value="" style="endArrow=classic;html=1;rounded=0;hachureGap=4;strokeColor=#000000;strokeWidth=3;align=center;verticalAlign=middle;fontFamily=Architects Daughter;fontSource=https%3A%2F%2Ffonts.googleapis.com%2Fcss%3Ffamily%3DArchitects%2BDaughter;fontSize=11;fontColor=default;labelBackgroundColor=default;edgeStyle=orthogonalEdgeStyle;flowAnimation=0;sketch=1;curveFitting=1;jiggle=2;startArrow=classic;startFill=1;" parent="1" edge="1">
          <mxGeometry width="50" height="50" relative="1" as="geometry">
            <mxPoint x="1130" y="1190" as="sourcePoint" />
            <mxPoint y="800" as="targetPoint" />
            <Array as="points">
              <mxPoint x="1" y="1191" />
              <mxPoint x="1" y="880" />
            </Array>
          </mxGeometry>
        </mxCell>
        <mxCell id="aqTeQGS8Rh9cY50qbYlt-108" value="" style="curved=1;endArrow=block;html=1;rounded=0;hachureGap=4;strokeColor=#CC00CC;strokeWidth=3;align=center;verticalAlign=middle;fontFamily=Architects Daughter;fontSource=https%3A%2F%2Ffonts.googleapis.com%2Fcss%3Ffamily%3DArchitects%2BDaughter;fontSize=11;fontColor=default;labelBackgroundColor=default;edgeStyle=orthogonalEdgeStyle;flowAnimation=1;endFill=1;" parent="1" edge="1">
          <mxGeometry width="50" height="50" relative="1" as="geometry">
            <mxPoint y="1030" as="sourcePoint" />
            <mxPoint x="1120" y="1000" as="targetPoint" />
            <Array as="points">
              <mxPoint y="1040" />
              <mxPoint x="310" y="1040" />
              <mxPoint x="310" y="920" />
              <mxPoint x="610" y="920" />
              <mxPoint x="610" y="820" />
              <mxPoint x="930" y="820" />
              <mxPoint x="930" y="1000" />
            </Array>
          </mxGeometry>
        </mxCell>
        <mxCell id="aqTeQGS8Rh9cY50qbYlt-110" value="" style="curved=1;endArrow=block;html=1;rounded=0;hachureGap=4;strokeColor=#666666;strokeWidth=3;align=center;verticalAlign=middle;fontFamily=Architects Daughter;fontSource=https%3A%2F%2Ffonts.googleapis.com%2Fcss%3Ffamily%3DArchitects%2BDaughter;fontSize=11;fontColor=default;labelBackgroundColor=default;edgeStyle=orthogonalEdgeStyle;flowAnimation=1;endFill=1;" parent="1" edge="1">
          <mxGeometry width="50" height="50" relative="1" as="geometry">
            <mxPoint y="1060" as="sourcePoint" />
            <mxPoint x="1120" y="1070" as="targetPoint" />
            <Array as="points">
              <mxPoint x="300" y="1060" />
              <mxPoint x="300" y="1190" />
              <mxPoint x="600" y="1190" />
              <mxPoint x="600" y="830" />
              <mxPoint x="920" y="830" />
              <mxPoint x="920" y="1070" />
            </Array>
          </mxGeometry>
        </mxCell>
        <mxCell id="aqTeQGS8Rh9cY50qbYlt-111" value="#" style="text;html=1;align=center;verticalAlign=middle;whiteSpace=wrap;rounded=0;fontFamily=Architects Daughter;fontSource=https%3A%2F%2Ffonts.googleapis.com%2Fcss%3Ffamily%3DArchitects%2BDaughter;fontSize=50;fontColor=default;labelBackgroundColor=default;" parent="1" vertex="1">
          <mxGeometry x="-60" y="800" width="60" height="30" as="geometry" />
        </mxCell>
        <mxCell id="aqTeQGS8Rh9cY50qbYlt-112" value="Number of Issues Can be &lt;span style=&quot;background-color: rgb(255, 255, 0); font-size: 25px;&quot;&gt;Detected&lt;/span&gt;" style="text;html=1;align=center;verticalAlign=middle;whiteSpace=wrap;rounded=0;fontFamily=Architects Daughter;fontSource=https%3A%2F%2Ffonts.googleapis.com%2Fcss%3Ffamily%3DArchitects%2BDaughter;fontSize=25;fontColor=default;labelBackgroundColor=default;" parent="1" vertex="1">
          <mxGeometry x="190" y="970" width="210" height="30" as="geometry" />
        </mxCell>
        <mxCell id="aqTeQGS8Rh9cY50qbYlt-113" value="Number of Issues Can Be &lt;span style=&quot;background-color: rgb(0, 255, 0); font-size: 25px;&quot;&gt;Prevented&lt;/span&gt;" style="text;html=1;align=center;verticalAlign=middle;whiteSpace=wrap;rounded=0;fontFamily=Architects Daughter;fontSource=https%3A%2F%2Ffonts.googleapis.com%2Fcss%3Ffamily%3DArchitects%2BDaughter;fontSize=25;fontColor=default;labelBackgroundColor=default;" parent="1" vertex="1">
          <mxGeometry x="505" y="1060" width="170" height="30" as="geometry" />
        </mxCell>
        <mxCell id="aqTeQGS8Rh9cY50qbYlt-117" style="edgeStyle=orthogonalEdgeStyle;rounded=0;hachureGap=4;orthogonalLoop=1;jettySize=auto;html=1;strokeColor=#666666;strokeWidth=3;align=center;verticalAlign=middle;fontFamily=Architects Daughter;fontSource=https%3A%2F%2Ffonts.googleapis.com%2Fcss%3Ffamily%3DArchitects%2BDaughter;fontSize=11;fontColor=default;labelBackgroundColor=default;endArrow=classic;flowAnimation=0;sketch=1;curveFitting=1;jiggle=2;curved=1;" parent="1" source="aqTeQGS8Rh9cY50qbYlt-115" edge="1">
          <mxGeometry relative="1" as="geometry">
            <mxPoint x="454.5714285714289" y="908.5714285714289" as="targetPoint" />
          </mxGeometry>
        </mxCell>
        <mxCell id="aqTeQGS8Rh9cY50qbYlt-115" value="A" style="ellipse;whiteSpace=wrap;html=1;aspect=fixed;sketch=1;hachureGap=4;jiggle=2;curveFitting=1;fontFamily=Architects Daughter;fontSource=https%3A%2F%2Ffonts.googleapis.com%2Fcss%3Ffamily%3DArchitects%2BDaughter;fontSize=40;fontColor=default;labelBackgroundColor=default;strokeWidth=4;" parent="1" vertex="1">
          <mxGeometry x="315" y="817" width="80" height="80" as="geometry" />
        </mxCell>
        <mxCell id="aqTeQGS8Rh9cY50qbYlt-118" style="edgeStyle=orthogonalEdgeStyle;curved=1;rounded=0;sketch=1;hachureGap=4;jiggle=2;curveFitting=1;orthogonalLoop=1;jettySize=auto;html=1;exitX=0.5;exitY=0;exitDx=0;exitDy=0;strokeColor=#666666;strokeWidth=3;align=center;verticalAlign=middle;fontFamily=Architects Daughter;fontSource=https%3A%2F%2Ffonts.googleapis.com%2Fcss%3Ffamily%3DArchitects%2BDaughter;fontSize=11;fontColor=default;labelBackgroundColor=default;endArrow=classic;flowAnimation=0;" parent="1" source="aqTeQGS8Rh9cY50qbYlt-116" edge="1">
          <mxGeometry relative="1" as="geometry">
            <mxPoint x="762.4285714285716" y="844.2857142857142" as="targetPoint" />
          </mxGeometry>
        </mxCell>
        <mxCell id="aqTeQGS8Rh9cY50qbYlt-116" value="B" style="ellipse;whiteSpace=wrap;html=1;aspect=fixed;sketch=1;hachureGap=4;jiggle=2;curveFitting=1;fontFamily=Architects Daughter;fontSource=https%3A%2F%2Ffonts.googleapis.com%2Fcss%3Ffamily%3DArchitects%2BDaughter;fontSize=40;fontColor=default;labelBackgroundColor=default;strokeWidth=4;" parent="1" vertex="1">
          <mxGeometry x="723" y="957" width="80" height="80" as="geometry" />
        </mxCell>
        <mxCell id="aqTeQGS8Rh9cY50qbYlt-119" value="" style="endArrow=classic;startArrow=classic;html=1;rounded=0;sketch=1;hachureGap=4;jiggle=2;curveFitting=1;strokeColor=#666666;strokeWidth=3;align=center;verticalAlign=middle;fontFamily=Architects Daughter;fontSource=https%3A%2F%2Ffonts.googleapis.com%2Fcss%3Ffamily%3DArchitects%2BDaughter;fontSize=11;fontColor=default;labelBackgroundColor=default;edgeStyle=orthogonalEdgeStyle;flowAnimation=0;curved=1;" parent="1" edge="1">
          <mxGeometry width="50" height="50" relative="1" as="geometry">
            <mxPoint x="450" y="1183" as="sourcePoint" />
            <mxPoint x="450" y="932" as="targetPoint" />
          </mxGeometry>
        </mxCell>
      </root>
    </mxGraphModel>
  </diagram>
  <diagram id="PxVPFgSLYXxW7MJNZ2ah" name="Alerts Types">
    <mxGraphModel dx="1624" dy="868" grid="0" gridSize="10" guides="1" tooltips="1" connect="1" arrows="1" fold="1" page="0" pageScale="1" pageWidth="850" pageHeight="1100" math="0" shadow="0">
      <root>
        <mxCell id="0" />
        <mxCell id="1" parent="0" />
        <mxCell id="NFUtD0KBeRpkaagW3FVv-1" value="Incidents" style="rounded=1;whiteSpace=wrap;html=1;sketch=1;hachureGap=4;jiggle=2;curveFitting=1;fontFamily=Architects Daughter;fontSource=https%3A%2F%2Ffonts.googleapis.com%2Fcss%3Ffamily%3DArchitects%2BDaughter;fontSize=18;fillColor=#f8cecc;strokeColor=#b85450;" parent="1" vertex="1">
          <mxGeometry x="170" y="280" width="300" height="80" as="geometry" />
        </mxCell>
        <mxCell id="NFUtD0KBeRpkaagW3FVv-13" style="edgeStyle=orthogonalEdgeStyle;rounded=0;hachureGap=4;orthogonalLoop=1;jettySize=auto;html=1;entryX=0.5;entryY=1;entryDx=0;entryDy=0;fontFamily=Architects Daughter;fontSource=https%3A%2F%2Ffonts.googleapis.com%2Fcss%3Ffamily%3DArchitects%2BDaughter;flowAnimation=1;strokeWidth=3;curved=1;fontSize=18;" parent="1" source="NFUtD0KBeRpkaagW3FVv-2" target="NFUtD0KBeRpkaagW3FVv-1" edge="1">
          <mxGeometry relative="1" as="geometry" />
        </mxCell>
        <mxCell id="NFUtD0KBeRpkaagW3FVv-2" value="Attack Paths&lt;div&gt;Discovered&lt;/div&gt;" style="rounded=1;whiteSpace=wrap;html=1;sketch=1;hachureGap=4;jiggle=2;curveFitting=1;fontFamily=Architects Daughter;fontSource=https%3A%2F%2Ffonts.googleapis.com%2Fcss%3Ffamily%3DArchitects%2BDaughter;fontSize=18;fillColor=#ffe6cc;strokeColor=#d79b00;" parent="1" vertex="1">
          <mxGeometry x="170" y="430" width="300" height="80" as="geometry" />
        </mxCell>
        <mxCell id="NFUtD0KBeRpkaagW3FVv-12" style="edgeStyle=orthogonalEdgeStyle;rounded=0;hachureGap=4;orthogonalLoop=1;jettySize=auto;html=1;exitX=0.5;exitY=0;exitDx=0;exitDy=0;entryX=0.5;entryY=1;entryDx=0;entryDy=0;fontFamily=Architects Daughter;fontSource=https%3A%2F%2Ffonts.googleapis.com%2Fcss%3Ffamily%3DArchitects%2BDaughter;flowAnimation=1;strokeWidth=3;curved=1;fontSize=18;" parent="1" source="NFUtD0KBeRpkaagW3FVv-3" target="NFUtD0KBeRpkaagW3FVv-2" edge="1">
          <mxGeometry relative="1" as="geometry" />
        </mxCell>
        <mxCell id="NFUtD0KBeRpkaagW3FVv-3" value="Misconfiguration&lt;div&gt;Alerts&lt;/div&gt;" style="rounded=1;whiteSpace=wrap;html=1;sketch=1;hachureGap=4;jiggle=2;curveFitting=1;fontFamily=Architects Daughter;fontSource=https%3A%2F%2Ffonts.googleapis.com%2Fcss%3Ffamily%3DArchitects%2BDaughter;fontSize=18;fillColor=#f5f5f5;fontColor=#333333;strokeColor=#666666;" parent="1" vertex="1">
          <mxGeometry x="170" y="580" width="300" height="80" as="geometry" />
        </mxCell>
        <mxCell id="NFUtD0KBeRpkaagW3FVv-10" style="edgeStyle=orthogonalEdgeStyle;rounded=0;hachureGap=4;orthogonalLoop=1;jettySize=auto;html=1;entryX=0.346;entryY=0.999;entryDx=0;entryDy=0;fontFamily=Architects Daughter;fontSource=https%3A%2F%2Ffonts.googleapis.com%2Fcss%3Ffamily%3DArchitects%2BDaughter;flowAnimation=1;strokeWidth=3;entryPerimeter=0;curved=1;fontSize=18;" parent="1" source="NFUtD0KBeRpkaagW3FVv-4" target="NFUtD0KBeRpkaagW3FVv-3" edge="1">
          <mxGeometry relative="1" as="geometry" />
        </mxCell>
        <mxCell id="NFUtD0KBeRpkaagW3FVv-9" style="edgeStyle=orthogonalEdgeStyle;rounded=0;hachureGap=4;orthogonalLoop=1;jettySize=auto;html=1;exitX=0.75;exitY=0;exitDx=0;exitDy=0;entryX=0.12;entryY=1.012;entryDx=0;entryDy=0;fontFamily=Architects Daughter;fontSource=https%3A%2F%2Ffonts.googleapis.com%2Fcss%3Ffamily%3DArchitects%2BDaughter;flowAnimation=1;strokeWidth=3;entryPerimeter=0;curved=1;fontSize=18;" parent="1" source="NFUtD0KBeRpkaagW3FVv-5" target="NFUtD0KBeRpkaagW3FVv-3" edge="1">
          <mxGeometry relative="1" as="geometry" />
        </mxCell>
        <mxCell id="gJ1LM0VP3T70IsfS7udT-10" style="edgeStyle=orthogonalEdgeStyle;curved=1;rounded=0;hachureGap=4;orthogonalLoop=1;jettySize=auto;html=1;entryX=0.25;entryY=1;entryDx=0;entryDy=0;dashed=1;dashPattern=1 2;strokeColor=default;strokeWidth=2;align=center;verticalAlign=middle;fontFamily=Architects Daughter;fontSource=https%3A%2F%2Ffonts.googleapis.com%2Fcss%3Ffamily%3DArchitects%2BDaughter;fontSize=11;fontColor=default;labelBackgroundColor=default;endArrow=classic;flowAnimation=1;exitX=0.567;exitY=-0.006;exitDx=0;exitDy=0;exitPerimeter=0;" parent="1" source="NFUtD0KBeRpkaagW3FVv-5" target="gJ1LM0VP3T70IsfS7udT-8" edge="1">
          <mxGeometry relative="1" as="geometry" />
        </mxCell>
        <mxCell id="gJ1LM0VP3T70IsfS7udT-13" style="edgeStyle=orthogonalEdgeStyle;curved=1;rounded=0;hachureGap=4;orthogonalLoop=1;jettySize=auto;html=1;exitX=0.25;exitY=0;exitDx=0;exitDy=0;entryX=0.25;entryY=1;entryDx=0;entryDy=0;dashed=1;dashPattern=1 2;strokeColor=default;strokeWidth=2;align=center;verticalAlign=middle;fontFamily=Architects Daughter;fontSource=https%3A%2F%2Ffonts.googleapis.com%2Fcss%3Ffamily%3DArchitects%2BDaughter;fontSize=11;fontColor=default;labelBackgroundColor=default;endArrow=classic;flowAnimation=1;" parent="1" source="NFUtD0KBeRpkaagW3FVv-5" target="gJ1LM0VP3T70IsfS7udT-11" edge="1">
          <mxGeometry relative="1" as="geometry" />
        </mxCell>
        <mxCell id="NFUtD0KBeRpkaagW3FVv-11" style="edgeStyle=orthogonalEdgeStyle;rounded=0;hachureGap=4;orthogonalLoop=1;jettySize=auto;html=1;exitX=0.5;exitY=0;exitDx=0;exitDy=0;entryX=0.546;entryY=0.999;entryDx=0;entryDy=0;fontFamily=Architects Daughter;fontSource=https%3A%2F%2Ffonts.googleapis.com%2Fcss%3Ffamily%3DArchitects%2BDaughter;flowAnimation=1;strokeWidth=3;entryPerimeter=0;curved=1;fontSize=18;" parent="1" source="NFUtD0KBeRpkaagW3FVv-6" target="NFUtD0KBeRpkaagW3FVv-3" edge="1">
          <mxGeometry relative="1" as="geometry" />
        </mxCell>
        <mxCell id="NFUtD0KBeRpkaagW3FVv-16" style="edgeStyle=orthogonalEdgeStyle;rounded=0;hachureGap=4;orthogonalLoop=1;jettySize=auto;html=1;exitX=0.5;exitY=0;exitDx=0;exitDy=0;entryX=0.92;entryY=1.026;entryDx=0;entryDy=0;strokeColor=default;strokeWidth=3;align=center;verticalAlign=middle;fontFamily=Architects Daughter;fontSource=https%3A%2F%2Ffonts.googleapis.com%2Fcss%3Ffamily%3DArchitects%2BDaughter;fontSize=18;fontColor=default;labelBackgroundColor=default;endArrow=classic;flowAnimation=1;entryPerimeter=0;curved=1;" parent="1" source="NFUtD0KBeRpkaagW3FVv-14" target="NFUtD0KBeRpkaagW3FVv-3" edge="1">
          <mxGeometry relative="1" as="geometry" />
        </mxCell>
        <mxCell id="gJ1LM0VP3T70IsfS7udT-5" style="edgeStyle=orthogonalEdgeStyle;curved=1;rounded=0;hachureGap=4;orthogonalLoop=1;jettySize=auto;html=1;exitX=0;exitY=0.5;exitDx=0;exitDy=0;entryX=1;entryY=0.5;entryDx=0;entryDy=0;dashed=1;dashPattern=1 2;strokeColor=default;strokeWidth=2;align=center;verticalAlign=middle;fontFamily=Architects Daughter;fontSource=https%3A%2F%2Ffonts.googleapis.com%2Fcss%3Ffamily%3DArchitects%2BDaughter;fontSize=11;fontColor=default;labelBackgroundColor=default;endArrow=classic;flowAnimation=1;" parent="1" source="gJ1LM0VP3T70IsfS7udT-1" target="NFUtD0KBeRpkaagW3FVv-1" edge="1">
          <mxGeometry relative="1" as="geometry" />
        </mxCell>
        <mxCell id="gJ1LM0VP3T70IsfS7udT-4" style="edgeStyle=orthogonalEdgeStyle;rounded=0;hachureGap=4;orthogonalLoop=1;jettySize=auto;html=1;exitX=0;exitY=0.5;exitDx=0;exitDy=0;entryX=1;entryY=0.25;entryDx=0;entryDy=0;fontFamily=Architects Daughter;fontSource=https%3A%2F%2Ffonts.googleapis.com%2Fcss%3Ffamily%3DArchitects%2BDaughter;curved=1;flowAnimation=1;dashed=1;dashPattern=1 2;strokeWidth=2;" parent="1" source="gJ1LM0VP3T70IsfS7udT-2" target="NFUtD0KBeRpkaagW3FVv-1" edge="1">
          <mxGeometry relative="1" as="geometry" />
        </mxCell>
        <mxCell id="gJ1LM0VP3T70IsfS7udT-6" style="edgeStyle=orthogonalEdgeStyle;curved=1;rounded=0;hachureGap=4;orthogonalLoop=1;jettySize=auto;html=1;exitX=0;exitY=0.25;exitDx=0;exitDy=0;entryX=0.997;entryY=0.881;entryDx=0;entryDy=0;dashed=1;dashPattern=1 2;strokeColor=default;strokeWidth=2;align=center;verticalAlign=middle;fontFamily=Architects Daughter;fontSource=https%3A%2F%2Ffonts.googleapis.com%2Fcss%3Ffamily%3DArchitects%2BDaughter;fontSize=11;fontColor=default;labelBackgroundColor=default;endArrow=classic;flowAnimation=1;entryPerimeter=0;" parent="1" source="gJ1LM0VP3T70IsfS7udT-3" target="NFUtD0KBeRpkaagW3FVv-1" edge="1">
          <mxGeometry relative="1" as="geometry" />
        </mxCell>
        <mxCell id="gJ1LM0VP3T70IsfS7udT-7" style="edgeStyle=orthogonalEdgeStyle;curved=1;rounded=0;hachureGap=4;orthogonalLoop=1;jettySize=auto;html=1;exitX=0;exitY=0.5;exitDx=0;exitDy=0;entryX=1;entryY=0.5;entryDx=0;entryDy=0;dashed=1;dashPattern=1 2;strokeColor=default;strokeWidth=2;align=center;verticalAlign=middle;fontFamily=Architects Daughter;fontSource=https%3A%2F%2Ffonts.googleapis.com%2Fcss%3Ffamily%3DArchitects%2BDaughter;fontSize=11;fontColor=default;labelBackgroundColor=default;endArrow=classic;flowAnimation=1;" parent="1" source="gJ1LM0VP3T70IsfS7udT-3" target="NFUtD0KBeRpkaagW3FVv-2" edge="1">
          <mxGeometry relative="1" as="geometry" />
        </mxCell>
        <mxCell id="gJ1LM0VP3T70IsfS7udT-21" style="edgeStyle=orthogonalEdgeStyle;curved=1;rounded=0;hachureGap=4;orthogonalLoop=1;jettySize=auto;html=1;exitX=0;exitY=0.75;exitDx=0;exitDy=0;entryX=1;entryY=0.5;entryDx=0;entryDy=0;dashed=1;dashPattern=1 2;strokeColor=default;strokeWidth=2;align=center;verticalAlign=middle;fontFamily=Architects Daughter;fontSource=https%3A%2F%2Ffonts.googleapis.com%2Fcss%3Ffamily%3DArchitects%2BDaughter;fontSize=11;fontColor=default;labelBackgroundColor=default;endArrow=classic;flowAnimation=1;" parent="1" source="gJ1LM0VP3T70IsfS7udT-3" target="NFUtD0KBeRpkaagW3FVv-3" edge="1">
          <mxGeometry relative="1" as="geometry" />
        </mxCell>
        <mxCell id="gJ1LM0VP3T70IsfS7udT-9" style="edgeStyle=orthogonalEdgeStyle;curved=1;rounded=0;hachureGap=4;orthogonalLoop=1;jettySize=auto;html=1;entryX=0;entryY=0.5;entryDx=0;entryDy=0;dashed=1;dashPattern=1 2;strokeColor=default;strokeWidth=2;align=center;verticalAlign=middle;fontFamily=Architects Daughter;fontSource=https%3A%2F%2Ffonts.googleapis.com%2Fcss%3Ffamily%3DArchitects%2BDaughter;fontSize=11;fontColor=default;labelBackgroundColor=default;endArrow=classic;flowAnimation=1;" parent="1" source="gJ1LM0VP3T70IsfS7udT-8" target="NFUtD0KBeRpkaagW3FVv-2" edge="1">
          <mxGeometry relative="1" as="geometry" />
        </mxCell>
        <mxCell id="gJ1LM0VP3T70IsfS7udT-8" value="Vulnerabilities" style="rounded=1;whiteSpace=wrap;html=1;sketch=1;hachureGap=4;jiggle=2;curveFitting=1;fontFamily=Architects Daughter;fontSource=https%3A%2F%2Ffonts.googleapis.com%2Fcss%3Ffamily%3DArchitects%2BDaughter;arcSize=50;fontSize=18;fillColor=#fff2cc;gradientColor=#ffd966;strokeColor=#d6b656;" parent="1" vertex="1">
          <mxGeometry y="450" width="130" height="40" as="geometry" />
        </mxCell>
        <mxCell id="gJ1LM0VP3T70IsfS7udT-12" style="edgeStyle=orthogonalEdgeStyle;curved=1;rounded=0;hachureGap=4;orthogonalLoop=1;jettySize=auto;html=1;entryX=0;entryY=0.5;entryDx=0;entryDy=0;dashed=1;dashPattern=1 2;strokeColor=default;strokeWidth=2;align=center;verticalAlign=middle;fontFamily=Architects Daughter;fontSource=https%3A%2F%2Ffonts.googleapis.com%2Fcss%3Ffamily%3DArchitects%2BDaughter;fontSize=11;fontColor=default;labelBackgroundColor=default;endArrow=classic;flowAnimation=1;" parent="1" source="gJ1LM0VP3T70IsfS7udT-11" target="NFUtD0KBeRpkaagW3FVv-1" edge="1">
          <mxGeometry relative="1" as="geometry" />
        </mxCell>
        <mxCell id="gJ1LM0VP3T70IsfS7udT-11" value="Runtime Info" style="rounded=1;whiteSpace=wrap;html=1;sketch=1;hachureGap=4;jiggle=2;curveFitting=1;fontFamily=Architects Daughter;fontSource=https%3A%2F%2Ffonts.googleapis.com%2Fcss%3Ffamily%3DArchitects%2BDaughter;arcSize=50;fontSize=18;fillColor=#fff2cc;gradientColor=#ffd966;strokeColor=#d6b656;" parent="1" vertex="1">
          <mxGeometry x="-70" y="305" width="180" height="30" as="geometry" />
        </mxCell>
        <mxCell id="NFUtD0KBeRpkaagW3FVv-4" value="Network Constructs" style="rounded=1;whiteSpace=wrap;html=1;sketch=1;hachureGap=4;jiggle=2;curveFitting=1;fontFamily=Architects Daughter;fontSource=https%3A%2F%2Ffonts.googleapis.com%2Fcss%3Ffamily%3DArchitects%2BDaughter;fontSize=18;fillColor=#d5e8d4;gradientColor=#97d077;strokeColor=#82b366;" parent="1" vertex="1">
          <mxGeometry x="120" y="760" width="230" height="50" as="geometry" />
        </mxCell>
        <mxCell id="NFUtD0KBeRpkaagW3FVv-5" value="Compute / Workloads" style="rounded=1;whiteSpace=wrap;html=1;sketch=1;hachureGap=4;jiggle=2;curveFitting=1;fontFamily=Architects Daughter;fontSource=https%3A%2F%2Ffonts.googleapis.com%2Fcss%3Ffamily%3DArchitects%2BDaughter;fontSize=18;fillColor=#d5e8d4;gradientColor=#97d077;strokeColor=#82b366;" parent="1" vertex="1">
          <mxGeometry x="-70" y="760" width="180" height="50" as="geometry" />
        </mxCell>
        <mxCell id="NFUtD0KBeRpkaagW3FVv-6" value="Data Services" style="rounded=1;whiteSpace=wrap;html=1;sketch=1;hachureGap=4;jiggle=2;curveFitting=1;fontFamily=Architects Daughter;fontSource=https%3A%2F%2Ffonts.googleapis.com%2Fcss%3Ffamily%3DArchitects%2BDaughter;fontSize=18;fillColor=#d5e8d4;gradientColor=#97d077;strokeColor=#82b366;" parent="1" vertex="1">
          <mxGeometry x="360" y="760" width="170" height="50" as="geometry" />
        </mxCell>
        <mxCell id="NFUtD0KBeRpkaagW3FVv-14" value="Identity" style="rounded=1;whiteSpace=wrap;html=1;sketch=1;hachureGap=4;jiggle=2;curveFitting=1;fontFamily=Architects Daughter;fontSource=https%3A%2F%2Ffonts.googleapis.com%2Fcss%3Ffamily%3DArchitects%2BDaughter;fontSize=18;fillColor=#d5e8d4;gradientColor=#97d077;strokeColor=#82b366;" parent="1" vertex="1">
          <mxGeometry x="540" y="760" width="120" height="50" as="geometry" />
        </mxCell>
        <mxCell id="gJ1LM0VP3T70IsfS7udT-22" value="" style="shadow=0;dashed=0;html=1;strokeColor=none;fillColor=#FF0000;labelPosition=center;verticalLabelPosition=bottom;verticalAlign=top;align=center;outlineConnect=0;shape=mxgraph.veeam.2d.alert;hachureGap=4;fontFamily=Architects Daughter;fontSource=https%3A%2F%2Ffonts.googleapis.com%2Fcss%3Ffamily%3DArchitects%2BDaughter;fontSize=11;fontColor=default;labelBackgroundColor=default;" parent="1" vertex="1">
          <mxGeometry x="180" y="450" width="40" height="40" as="geometry" />
        </mxCell>
        <mxCell id="gJ1LM0VP3T70IsfS7udT-23" value="" style="sketch=0;pointerEvents=1;shadow=0;dashed=0;html=1;strokeColor=none;labelPosition=center;verticalLabelPosition=bottom;verticalAlign=top;align=center;fillColor=#505050;shape=mxgraph.mscae.intune.alerts;hachureGap=4;jiggle=2;curveFitting=1;fontFamily=Architects Daughter;fontSource=https%3A%2F%2Ffonts.googleapis.com%2Fcss%3Ffamily%3DArchitects%2BDaughter;fontSize=11;fontColor=default;labelBackgroundColor=default;" parent="1" vertex="1">
          <mxGeometry x="185" y="605" width="35" height="35" as="geometry" />
        </mxCell>
        <mxCell id="gJ1LM0VP3T70IsfS7udT-25" value="" style="shape=image;verticalLabelPosition=bottom;labelBackgroundColor=default;verticalAlign=top;aspect=fixed;imageAspect=0;image=https://uxwing.com/wp-content/themes/uxwing/download/signs-and-symbols/red-alert-icon.png;" parent="1" vertex="1">
          <mxGeometry x="180" y="302" width="39.71" height="36" as="geometry" />
        </mxCell>
        <mxCell id="gJ1LM0VP3T70IsfS7udT-28" style="edgeStyle=orthogonalEdgeStyle;curved=1;rounded=0;hachureGap=4;orthogonalLoop=1;jettySize=auto;html=1;exitX=0;exitY=0.5;exitDx=0;exitDy=0;entryX=1.003;entryY=0.656;entryDx=0;entryDy=0;dashed=1;dashPattern=1 2;strokeColor=default;strokeWidth=2;align=center;verticalAlign=middle;fontFamily=Architects Daughter;fontSource=https%3A%2F%2Ffonts.googleapis.com%2Fcss%3Ffamily%3DArchitects%2BDaughter;fontSize=11;fontColor=default;labelBackgroundColor=default;endArrow=classic;flowAnimation=1;entryPerimeter=0;" parent="1" source="gJ1LM0VP3T70IsfS7udT-27" target="NFUtD0KBeRpkaagW3FVv-1" edge="1">
          <mxGeometry relative="1" as="geometry" />
        </mxCell>
        <mxCell id="gJ1LM0VP3T70IsfS7udT-1" value="Flow Logs" style="rounded=1;whiteSpace=wrap;html=1;sketch=1;hachureGap=4;jiggle=2;curveFitting=1;fontFamily=Architects Daughter;fontSource=https%3A%2F%2Ffonts.googleapis.com%2Fcss%3Ffamily%3DArchitects%2BDaughter;arcSize=50;fontSize=18;fillColor=#ffcd28;gradientColor=#ffa500;strokeColor=#d79b00;" parent="1" vertex="1">
          <mxGeometry x="560" y="305" width="150" height="30" as="geometry" />
        </mxCell>
        <mxCell id="gJ1LM0VP3T70IsfS7udT-2" value="Audit Logs" style="rounded=1;whiteSpace=wrap;html=1;sketch=1;hachureGap=4;jiggle=2;curveFitting=1;fontFamily=Architects Daughter;fontSource=https%3A%2F%2Ffonts.googleapis.com%2Fcss%3Ffamily%3DArchitects%2BDaughter;arcSize=50;fontSize=18;fillColor=#ffcd28;gradientColor=#ffa500;strokeColor=#d79b00;" parent="1" vertex="1">
          <mxGeometry x="560" y="260" width="150" height="30" as="geometry" />
        </mxCell>
        <mxCell id="gJ1LM0VP3T70IsfS7udT-3" value="Configurations" style="rounded=1;whiteSpace=wrap;html=1;sketch=1;hachureGap=4;jiggle=2;curveFitting=1;fontFamily=Architects Daughter;fontSource=https%3A%2F%2Ffonts.googleapis.com%2Fcss%3Ffamily%3DArchitects%2BDaughter;arcSize=50;fontSize=18;fillColor=#ffcd28;gradientColor=#ffa500;strokeColor=#d79b00;" parent="1" vertex="1">
          <mxGeometry x="560" y="450" width="150" height="40" as="geometry" />
        </mxCell>
        <mxCell id="gJ1LM0VP3T70IsfS7udT-27" value="DNS Logs" style="rounded=1;whiteSpace=wrap;html=1;sketch=1;hachureGap=4;jiggle=2;curveFitting=1;fontFamily=Architects Daughter;fontSource=https%3A%2F%2Ffonts.googleapis.com%2Fcss%3Ffamily%3DArchitects%2BDaughter;arcSize=50;fontSize=18;fillColor=#ffcd28;gradientColor=#ffa500;strokeColor=#d79b00;" parent="1" vertex="1">
          <mxGeometry x="560" y="350" width="150" height="30" as="geometry" />
        </mxCell>
        <mxCell id="gJ1LM0VP3T70IsfS7udT-32" value="Public&lt;div&gt;Clouds&lt;/div&gt;" style="ellipse;shape=cloud;whiteSpace=wrap;html=1;sketch=1;hachureGap=4;jiggle=2;curveFitting=1;fontFamily=Architects Daughter;fontSource=https%3A%2F%2Ffonts.googleapis.com%2Fcss%3Ffamily%3DArchitects%2BDaughter;fontSize=18;labelBackgroundColor=none;fillColor=#f5f5f5;gradientColor=#b3b3b3;strokeColor=#666666;" parent="1" vertex="1">
          <mxGeometry x="575" y="160" width="120" height="80" as="geometry" />
        </mxCell>
      </root>
    </mxGraphModel>
  </diagram>
  <diagram id="MMCJVObSEsZEoLY5bh4f" name="Adoption Journey">
    <mxGraphModel dx="1224" dy="1268" grid="0" gridSize="10" guides="1" tooltips="1" connect="1" arrows="1" fold="1" page="0" pageScale="1" pageWidth="850" pageHeight="1100" math="0" shadow="0">
      <root>
        <mxCell id="0" />
        <mxCell id="1" parent="0" />
        <mxCell id="2OKoz1TPi8L4KWYyu1LC-2" value="" style="edgeStyle=segmentEdgeStyle;endArrow=classic;html=1;curved=0;rounded=0;endSize=8;startSize=8;sketch=1;hachureGap=4;jiggle=2;curveFitting=1;fontFamily=Architects Daughter;fontSource=https%3A%2F%2Ffonts.googleapis.com%2Fcss%3Ffamily%3DArchitects%2BDaughter;startArrow=classic;startFill=1;strokeWidth=2;" parent="1" edge="1">
          <mxGeometry width="50" height="50" relative="1" as="geometry">
            <mxPoint x="1020" y="750" as="sourcePoint" />
            <mxPoint x="80" y="-90" as="targetPoint" />
          </mxGeometry>
        </mxCell>
        <mxCell id="2OKoz1TPi8L4KWYyu1LC-5" value="Risks Preventable" style="curved=1;endArrow=classic;html=1;rounded=0;hachureGap=4;fontFamily=Architects Daughter;fontSource=https%3A%2F%2Ffonts.googleapis.com%2Fcss%3Ffamily%3DArchitects%2BDaughter;flowAnimation=1;strokeWidth=3;strokeColor=#00FFFF;fontSize=24;fontColor=#00FFFF;fontStyle=1" parent="1" edge="1">
          <mxGeometry x="0.3545" y="-28" width="50" height="50" relative="1" as="geometry">
            <mxPoint x="80" y="710" as="sourcePoint" />
            <mxPoint x="1000" y="120" as="targetPoint" />
            <Array as="points">
              <mxPoint x="260" y="720" />
              <mxPoint x="320" y="520" />
              <mxPoint x="430" y="530" />
              <mxPoint x="440" y="430" />
              <mxPoint x="490" y="390" />
              <mxPoint x="685" y="398" />
              <mxPoint x="700" y="190" />
              <mxPoint x="860" y="190" />
            </Array>
            <mxPoint y="1" as="offset" />
          </mxGeometry>
        </mxCell>
        <mxCell id="2OKoz1TPi8L4KWYyu1LC-6" value="Cloud Security Visibility" style="curved=1;endArrow=classic;html=1;rounded=0;hachureGap=4;fontFamily=Architects Daughter;fontSource=https%3A%2F%2Ffonts.googleapis.com%2Fcss%3Ffamily%3DArchitects%2BDaughter;flowAnimation=1;strokeWidth=3;strokeColor=#FF33FF;fontSize=24;fontStyle=1;fontColor=#FF33FF;" parent="1" edge="1">
          <mxGeometry x="0.1383" y="25" width="50" height="50" relative="1" as="geometry">
            <mxPoint x="80" y="700" as="sourcePoint" />
            <mxPoint x="980" y="-80" as="targetPoint" />
            <Array as="points">
              <mxPoint x="250" y="720" />
              <mxPoint x="320" y="450" />
              <mxPoint x="420" y="470" />
              <mxPoint x="490" y="310" />
              <mxPoint x="600" y="210" />
              <mxPoint x="760" y="180" />
              <mxPoint x="910" y="120" />
            </Array>
            <mxPoint as="offset" />
          </mxGeometry>
        </mxCell>
        <mxCell id="2OKoz1TPi8L4KWYyu1LC-7" value="" style="line;strokeWidth=1;direction=south;html=1;hachureGap=4;fontFamily=Architects Daughter;fontSource=https%3A%2F%2Ffonts.googleapis.com%2Fcss%3Ffamily%3DArchitects%2BDaughter;dashed=1;" parent="1" vertex="1">
          <mxGeometry x="190" y="-60" width="10" height="809.9999999999999" as="geometry" />
        </mxCell>
        <mxCell id="2OKoz1TPi8L4KWYyu1LC-8" value="" style="line;strokeWidth=1;direction=south;html=1;hachureGap=4;fontFamily=Architects Daughter;fontSource=https%3A%2F%2Ffonts.googleapis.com%2Fcss%3Ffamily%3DArchitects%2BDaughter;dashed=1;" parent="1" vertex="1">
          <mxGeometry x="400" y="-60" width="10" height="809.9999999999999" as="geometry" />
        </mxCell>
        <mxCell id="2OKoz1TPi8L4KWYyu1LC-9" value="" style="line;strokeWidth=1;direction=south;html=1;hachureGap=4;fontFamily=Architects Daughter;fontSource=https%3A%2F%2Ffonts.googleapis.com%2Fcss%3Ffamily%3DArchitects%2BDaughter;dashed=1;" parent="1" vertex="1">
          <mxGeometry x="470" y="-60" width="10" height="809.9999999999999" as="geometry" />
        </mxCell>
        <mxCell id="2OKoz1TPi8L4KWYyu1LC-10" value="" style="line;strokeWidth=1;direction=south;html=1;hachureGap=4;fontFamily=Architects Daughter;fontSource=https%3A%2F%2Ffonts.googleapis.com%2Fcss%3Ffamily%3DArchitects%2BDaughter;dashed=1;" parent="1" vertex="1">
          <mxGeometry x="630" y="-60" width="10" height="809.9999999999999" as="geometry" />
        </mxCell>
        <mxCell id="2OKoz1TPi8L4KWYyu1LC-11" value="" style="line;strokeWidth=1;direction=south;html=1;hachureGap=4;fontFamily=Architects Daughter;fontSource=https%3A%2F%2Ffonts.googleapis.com%2Fcss%3Ffamily%3DArchitects%2BDaughter;dashed=1;" parent="1" vertex="1">
          <mxGeometry x="780" y="-60" width="10" height="809.9999999999999" as="geometry" />
        </mxCell>
        <mxCell id="2OKoz1TPi8L4KWYyu1LC-13" value="" style="line;strokeWidth=1;direction=south;html=1;hachureGap=4;fontFamily=Architects Daughter;fontSource=https%3A%2F%2Ffonts.googleapis.com%2Fcss%3Ffamily%3DArchitects%2BDaughter;dashed=1;" parent="1" vertex="1">
          <mxGeometry x="320" y="-60" width="10" height="809.9999999999999" as="geometry" />
        </mxCell>
        <mxCell id="2OKoz1TPi8L4KWYyu1LC-15" value="CSPM" style="endArrow=classic;startArrow=classic;html=1;rounded=0;sketch=1;hachureGap=4;jiggle=2;curveFitting=1;fontFamily=Architects Daughter;fontSource=https%3A%2F%2Ffonts.googleapis.com%2Fcss%3Ffamily%3DArchitects%2BDaughter;curved=1;entryX=0.024;entryY=0.6;entryDx=0;entryDy=0;entryPerimeter=0;fontSize=16;fontStyle=1" parent="1" target="2OKoz1TPi8L4KWYyu1LC-13" edge="1">
          <mxGeometry width="50" height="50" relative="1" as="geometry">
            <mxPoint x="200" y="-40" as="sourcePoint" />
            <mxPoint x="250" y="-90" as="targetPoint" />
          </mxGeometry>
        </mxCell>
        <mxCell id="2OKoz1TPi8L4KWYyu1LC-16" value="DSPM" style="endArrow=classic;startArrow=classic;html=1;rounded=0;sketch=1;hachureGap=4;jiggle=2;curveFitting=1;fontFamily=Architects Daughter;fontSource=https%3A%2F%2Ffonts.googleapis.com%2Fcss%3Ffamily%3DArchitects%2BDaughter;curved=1;entryX=0.062;entryY=0.2;entryDx=0;entryDy=0;entryPerimeter=0;fontSize=16;fontStyle=1" parent="1" target="2OKoz1TPi8L4KWYyu1LC-8" edge="1">
          <mxGeometry width="50" height="50" relative="1" as="geometry">
            <mxPoint x="320" y="-10" as="sourcePoint" />
            <mxPoint x="400" y="-10" as="targetPoint" />
          </mxGeometry>
        </mxCell>
        <mxCell id="2OKoz1TPi8L4KWYyu1LC-17" value="CDEM" style="endArrow=classic;startArrow=classic;html=1;rounded=0;sketch=1;hachureGap=4;jiggle=2;curveFitting=1;fontFamily=Architects Daughter;fontSource=https%3A%2F%2Ffonts.googleapis.com%2Fcss%3Ffamily%3DArchitects%2BDaughter;curved=1;entryX=0.062;entryY=0.2;entryDx=0;entryDy=0;entryPerimeter=0;fontSize=16;fontStyle=1" parent="1" edge="1">
          <mxGeometry width="50" height="50" relative="1" as="geometry">
            <mxPoint x="392" y="50" as="sourcePoint" />
            <mxPoint x="480" y="50" as="targetPoint" />
          </mxGeometry>
        </mxCell>
        <mxCell id="2OKoz1TPi8L4KWYyu1LC-18" value="CWP&lt;div&gt;(Agentless)&lt;/div&gt;" style="endArrow=classic;startArrow=classic;html=1;rounded=0;sketch=1;hachureGap=4;jiggle=2;curveFitting=1;fontFamily=Architects Daughter;fontSource=https%3A%2F%2Ffonts.googleapis.com%2Fcss%3Ffamily%3DArchitects%2BDaughter;curved=1;entryX=0.072;entryY=0.8;entryDx=0;entryDy=0;entryPerimeter=0;fontSize=16;fontStyle=1" parent="1" target="2OKoz1TPi8L4KWYyu1LC-10" edge="1">
          <mxGeometry width="50" height="50" relative="1" as="geometry">
            <mxPoint x="470" as="sourcePoint" />
            <mxPoint x="558" as="targetPoint" />
          </mxGeometry>
        </mxCell>
        <mxCell id="2OKoz1TPi8L4KWYyu1LC-19" value="CWP&lt;div&gt;(Agent)&lt;/div&gt;&lt;div&gt;+ WAAS&lt;/div&gt;" style="endArrow=classic;startArrow=classic;html=1;rounded=0;sketch=1;hachureGap=4;jiggle=2;curveFitting=1;fontFamily=Architects Daughter;fontSource=https%3A%2F%2Ffonts.googleapis.com%2Fcss%3Ffamily%3DArchitects%2BDaughter;curved=1;entryX=0.072;entryY=0.8;entryDx=0;entryDy=0;entryPerimeter=0;fontSize=16;fontStyle=1" parent="1" edge="1">
          <mxGeometry width="50" height="50" relative="1" as="geometry">
            <mxPoint x="628" y="32" as="sourcePoint" />
            <mxPoint x="790" y="30" as="targetPoint" />
          </mxGeometry>
        </mxCell>
        <mxCell id="2OKoz1TPi8L4KWYyu1LC-20" value="Cloud Application&lt;div&gt;Security&lt;/div&gt;" style="endArrow=classic;startArrow=classic;html=1;rounded=0;sketch=1;hachureGap=4;jiggle=2;curveFitting=1;fontFamily=Architects Daughter;fontSource=https%3A%2F%2Ffonts.googleapis.com%2Fcss%3Ffamily%3DArchitects%2BDaughter;curved=1;fontSize=16;fontStyle=1" parent="1" edge="1">
          <mxGeometry width="50" height="50" relative="1" as="geometry">
            <mxPoint x="780" y="-8" as="sourcePoint" />
            <mxPoint x="1010" y="-10" as="targetPoint" />
          </mxGeometry>
        </mxCell>
        <mxCell id="2OKoz1TPi8L4KWYyu1LC-21" value="Nothing" style="endArrow=classic;startArrow=classic;html=1;rounded=0;sketch=1;hachureGap=4;jiggle=2;curveFitting=1;fontFamily=Architects Daughter;fontSource=https%3A%2F%2Ffonts.googleapis.com%2Fcss%3Ffamily%3DArchitects%2BDaughter;curved=1;entryX=0.024;entryY=0.6;entryDx=0;entryDy=0;entryPerimeter=0;fontSize=16;fontStyle=1" parent="1" edge="1">
          <mxGeometry width="50" height="50" relative="1" as="geometry">
            <mxPoint x="76" y="-30" as="sourcePoint" />
            <mxPoint x="200" y="-31" as="targetPoint" />
          </mxGeometry>
        </mxCell>
        <mxCell id="2OKoz1TPi8L4KWYyu1LC-22" value="Risk Level" style="curved=1;endArrow=classic;html=1;rounded=0;sketch=1;hachureGap=4;jiggle=2;curveFitting=1;fontFamily=Architects Daughter;fontSource=https%3A%2F%2Ffonts.googleapis.com%2Fcss%3Ffamily%3DArchitects%2BDaughter;fontSize=24;" parent="1" edge="1">
          <mxGeometry x="-0.5946" y="3" width="50" height="50" relative="1" as="geometry">
            <mxPoint x="80" y="50" as="sourcePoint" />
            <mxPoint x="1010" y="670" as="targetPoint" />
            <Array as="points">
              <mxPoint x="230" y="50" />
              <mxPoint x="230" y="90" />
              <mxPoint x="340" y="170" />
              <mxPoint x="370" y="290" />
              <mxPoint x="440" y="340" />
              <mxPoint x="470" y="460" />
              <mxPoint x="630" y="440" />
              <mxPoint x="690" y="520" />
              <mxPoint x="790" y="630" />
            </Array>
            <mxPoint as="offset" />
          </mxGeometry>
        </mxCell>
      </root>
    </mxGraphModel>
  </diagram>
  <diagram id="P7Q-oIUFj0A0Y167MA7z" name="End to End Cloud Security Stack">
    <mxGraphModel dx="1224" dy="868" grid="0" gridSize="10" guides="1" tooltips="1" connect="1" arrows="1" fold="1" page="0" pageScale="1" pageWidth="850" pageHeight="1100" math="0" shadow="0">
      <root>
        <mxCell id="0" />
        <mxCell id="1" parent="0" />
        <mxCell id="-KfWr4D-ofppNePz2alP-47" value="" style="endArrow=none;dashed=1;html=1;rounded=0;hachureGap=4;strokeColor=default;strokeWidth=2;align=center;verticalAlign=middle;fontFamily=Architects Daughter;fontSource=https%3A%2F%2Ffonts.googleapis.com%2Fcss%3Ffamily%3DArchitects%2BDaughter;fontSize=11;fontColor=default;labelBackgroundColor=default;edgeStyle=orthogonalEdgeStyle;flowAnimation=0;curved=1;dashPattern=1 2;" parent="1" edge="1">
          <mxGeometry width="50" height="50" relative="1" as="geometry">
            <mxPoint x="110" y="299.5" as="sourcePoint" />
            <mxPoint x="675.5" y="299.75" as="targetPoint" />
          </mxGeometry>
        </mxCell>
        <mxCell id="-KfWr4D-ofppNePz2alP-29" value="&lt;div&gt;User Accounts&lt;/div&gt;" style="rounded=1;whiteSpace=wrap;html=1;sketch=1;hachureGap=4;jiggle=2;curveFitting=1;fontFamily=Architects Daughter;fontSource=https%3A%2F%2Ffonts.googleapis.com%2Fcss%3Ffamily%3DArchitects%2BDaughter;fontSize=16;verticalAlign=bottom;" parent="1" vertex="1">
          <mxGeometry x="405" y="435" width="140" height="155" as="geometry" />
        </mxCell>
        <mxCell id="-KfWr4D-ofppNePz2alP-1" value="Application users" style="shape=umlActor;verticalLabelPosition=bottom;verticalAlign=top;html=1;outlineConnect=0;sketch=1;hachureGap=4;jiggle=2;curveFitting=1;fontFamily=Architects Daughter;fontSource=https%3A%2F%2Ffonts.googleapis.com%2Fcss%3Ffamily%3DArchitects%2BDaughter;fontSize=16;" parent="1" vertex="1">
          <mxGeometry x="460" y="90" width="30" height="60" as="geometry" />
        </mxCell>
        <mxCell id="-KfWr4D-ofppNePz2alP-2" value="Hackers" style="shape=umlActor;verticalLabelPosition=bottom;verticalAlign=top;html=1;outlineConnect=0;sketch=1;hachureGap=4;jiggle=2;curveFitting=1;fontFamily=Architects Daughter;fontSource=https%3A%2F%2Ffonts.googleapis.com%2Fcss%3Ffamily%3DArchitects%2BDaughter;fontSize=16;" parent="1" vertex="1">
          <mxGeometry x="247.5" y="90" width="30" height="60" as="geometry" />
        </mxCell>
        <mxCell id="-KfWr4D-ofppNePz2alP-3" value="AWS" style="ellipse;shape=cloud;whiteSpace=wrap;html=1;sketch=1;hachureGap=4;jiggle=2;curveFitting=1;fontFamily=Architects Daughter;fontSource=https%3A%2F%2Ffonts.googleapis.com%2Fcss%3Ffamily%3DArchitects%2BDaughter;fontSize=16;" parent="1" vertex="1">
          <mxGeometry x="230" y="260" width="120" height="80" as="geometry" />
        </mxCell>
        <mxCell id="-KfWr4D-ofppNePz2alP-4" value="GCP" style="ellipse;shape=cloud;whiteSpace=wrap;html=1;sketch=1;hachureGap=4;jiggle=2;curveFitting=1;fontFamily=Architects Daughter;fontSource=https%3A%2F%2Ffonts.googleapis.com%2Fcss%3Ffamily%3DArchitects%2BDaughter;fontSize=16;" parent="1" vertex="1">
          <mxGeometry x="405" y="240" width="120" height="80" as="geometry" />
        </mxCell>
        <mxCell id="-KfWr4D-ofppNePz2alP-5" value="Alicloud" style="ellipse;shape=cloud;whiteSpace=wrap;html=1;sketch=1;hachureGap=4;jiggle=2;curveFitting=1;fontFamily=Architects Daughter;fontSource=https%3A%2F%2Ffonts.googleapis.com%2Fcss%3Ffamily%3DArchitects%2BDaughter;fontSize=16;" parent="1" vertex="1">
          <mxGeometry x="305" y="310" width="120" height="80" as="geometry" />
        </mxCell>
        <mxCell id="-KfWr4D-ofppNePz2alP-6" value="Azure" style="ellipse;shape=cloud;whiteSpace=wrap;html=1;sketch=1;hachureGap=4;jiggle=2;curveFitting=1;fontFamily=Architects Daughter;fontSource=https%3A%2F%2Ffonts.googleapis.com%2Fcss%3Ffamily%3DArchitects%2BDaughter;fontSize=16;" parent="1" vertex="1">
          <mxGeometry x="310" y="240" width="120" height="80" as="geometry" />
        </mxCell>
        <mxCell id="-KfWr4D-ofppNePz2alP-7" value="Oracle" style="ellipse;shape=cloud;whiteSpace=wrap;html=1;sketch=1;hachureGap=4;jiggle=2;curveFitting=1;fontFamily=Architects Daughter;fontSource=https%3A%2F%2Ffonts.googleapis.com%2Fcss%3Ffamily%3DArchitects%2BDaughter;fontSize=16;" parent="1" vertex="1">
          <mxGeometry x="390" y="295" width="120" height="80" as="geometry" />
        </mxCell>
        <mxCell id="-KfWr4D-ofppNePz2alP-9" value="Cloud Operator" style="shape=umlActor;verticalLabelPosition=bottom;verticalAlign=top;html=1;outlineConnect=0;sketch=1;hachureGap=4;jiggle=2;curveFitting=1;fontFamily=Architects Daughter;fontSource=https%3A%2F%2Ffonts.googleapis.com%2Fcss%3Ffamily%3DArchitects%2BDaughter;fontSize=16;" parent="1" vertex="1">
          <mxGeometry x="460" y="455" width="30" height="60" as="geometry" />
        </mxCell>
        <mxCell id="-KfWr4D-ofppNePz2alP-10" value="Cloud Datacenter" style="rounded=1;whiteSpace=wrap;html=1;sketch=1;hachureGap=4;jiggle=2;curveFitting=1;fontFamily=Architects Daughter;fontSource=https%3A%2F%2Ffonts.googleapis.com%2Fcss%3Ffamily%3DArchitects%2BDaughter;fontSize=16;verticalAlign=bottom;" parent="1" vertex="1">
          <mxGeometry x="110" y="470" width="220" height="180" as="geometry" />
        </mxCell>
        <mxCell id="-KfWr4D-ofppNePz2alP-12" value="VM" style="whiteSpace=wrap;html=1;aspect=fixed;sketch=1;hachureGap=4;jiggle=2;curveFitting=1;fontFamily=Architects Daughter;fontSource=https%3A%2F%2Ffonts.googleapis.com%2Fcss%3Ffamily%3DArchitects%2BDaughter;fontSize=16;" parent="1" vertex="1">
          <mxGeometry x="135" y="520" width="40" height="40" as="geometry" />
        </mxCell>
        <mxCell id="-KfWr4D-ofppNePz2alP-13" value="K8S" style="whiteSpace=wrap;html=1;aspect=fixed;sketch=1;hachureGap=4;jiggle=2;curveFitting=1;fontFamily=Architects Daughter;fontSource=https%3A%2F%2Ffonts.googleapis.com%2Fcss%3Ffamily%3DArchitects%2BDaughter;fontSize=16;" parent="1" vertex="1">
          <mxGeometry x="200" y="520" width="40" height="40" as="geometry" />
        </mxCell>
        <mxCell id="-KfWr4D-ofppNePz2alP-15" value="DATA" style="shape=cylinder3;whiteSpace=wrap;html=1;boundedLbl=1;backgroundOutline=1;size=15;sketch=1;hachureGap=4;jiggle=2;curveFitting=1;fontFamily=Architects Daughter;fontSource=https%3A%2F%2Ffonts.googleapis.com%2Fcss%3Ffamily%3DArchitects%2BDaughter;fontSize=16;" parent="1" vertex="1">
          <mxGeometry x="260" y="540" width="52.5" height="70" as="geometry" />
        </mxCell>
        <mxCell id="-KfWr4D-ofppNePz2alP-16" value="APP" style="rounded=1;whiteSpace=wrap;html=1;sketch=1;hachureGap=4;jiggle=2;curveFitting=1;fontFamily=Architects Daughter;fontSource=https%3A%2F%2Ffonts.googleapis.com%2Fcss%3Ffamily%3DArchitects%2BDaughter;fontSize=14;" parent="1" vertex="1">
          <mxGeometry x="130" y="490" width="50" height="20" as="geometry" />
        </mxCell>
        <mxCell id="-KfWr4D-ofppNePz2alP-18" value="APP" style="rounded=1;whiteSpace=wrap;html=1;sketch=1;hachureGap=4;jiggle=2;curveFitting=1;fontFamily=Architects Daughter;fontSource=https%3A%2F%2Ffonts.googleapis.com%2Fcss%3Ffamily%3DArchitects%2BDaughter;fontSize=14;" parent="1" vertex="1">
          <mxGeometry x="195" y="490" width="50" height="20" as="geometry" />
        </mxCell>
        <mxCell id="-KfWr4D-ofppNePz2alP-19" value="Repo" style="shape=cylinder3;whiteSpace=wrap;html=1;boundedLbl=1;backgroundOutline=1;size=15;sketch=1;hachureGap=4;jiggle=2;curveFitting=1;fontFamily=Architects Daughter;fontSource=https%3A%2F%2Ffonts.googleapis.com%2Fcss%3Ffamily%3DArchitects%2BDaughter;fontSize=16;" parent="1" vertex="1">
          <mxGeometry x="247.5" y="820" width="65" height="80" as="geometry" />
        </mxCell>
        <mxCell id="-KfWr4D-ofppNePz2alP-20" value="Developer" style="shape=umlActor;verticalLabelPosition=bottom;verticalAlign=top;html=1;outlineConnect=0;sketch=1;hachureGap=4;jiggle=2;curveFitting=1;fontFamily=Architects Daughter;fontSource=https%3A%2F%2Ffonts.googleapis.com%2Fcss%3Ffamily%3DArchitects%2BDaughter;fontSize=16;" parent="1" vertex="1">
          <mxGeometry x="135" y="830" width="30" height="60" as="geometry" />
        </mxCell>
        <mxCell id="-KfWr4D-ofppNePz2alP-28" style="edgeStyle=orthogonalEdgeStyle;curved=1;rounded=0;hachureGap=4;orthogonalLoop=1;jettySize=auto;html=1;entryX=1;entryY=0.5;entryDx=0;entryDy=0;strokeColor=#FF00FF;strokeWidth=3;align=center;verticalAlign=middle;fontFamily=Architects Daughter;fontSource=https%3A%2F%2Ffonts.googleapis.com%2Fcss%3Ffamily%3DArchitects%2BDaughter;fontSize=11;fontColor=default;labelBackgroundColor=default;endArrow=classic;flowAnimation=1;exitX=0.53;exitY=0;exitDx=0;exitDy=0;exitPerimeter=0;" parent="1" source="-KfWr4D-ofppNePz2alP-22" target="-KfWr4D-ofppNePz2alP-18" edge="1">
          <mxGeometry relative="1" as="geometry">
            <Array as="points">
              <mxPoint x="286" y="660" />
              <mxPoint x="370" y="660" />
              <mxPoint x="370" y="500" />
            </Array>
          </mxGeometry>
        </mxCell>
        <mxCell id="-KfWr4D-ofppNePz2alP-22" value="CI/CD Pipeline" style="html=1;shadow=0;dashed=0;align=center;verticalAlign=middle;shape=mxgraph.arrows2.arrow;dy=0;dx=30;notch=30;sketch=1;hachureGap=4;jiggle=2;curveFitting=1;fontFamily=Architects Daughter;fontSource=https%3A%2F%2Ffonts.googleapis.com%2Fcss%3Ffamily%3DArchitects%2BDaughter;fontSize=18;" parent="1" vertex="1">
          <mxGeometry x="178.75" y="705" width="202.5" height="40" as="geometry" />
        </mxCell>
        <mxCell id="-KfWr4D-ofppNePz2alP-23" style="edgeStyle=orthogonalEdgeStyle;rounded=0;hachureGap=4;orthogonalLoop=1;jettySize=auto;html=1;exitX=0.5;exitY=0.5;exitDx=0;exitDy=0;exitPerimeter=0;entryX=0;entryY=0.5;entryDx=0;entryDy=0;entryPerimeter=0;fontFamily=Architects Daughter;fontSource=https%3A%2F%2Ffonts.googleapis.com%2Fcss%3Ffamily%3DArchitects%2BDaughter;flowAnimation=1;strokeWidth=3;curved=1;strokeColor=#FF00FF;" parent="1" source="-KfWr4D-ofppNePz2alP-20" target="-KfWr4D-ofppNePz2alP-19" edge="1">
          <mxGeometry relative="1" as="geometry" />
        </mxCell>
        <mxCell id="-KfWr4D-ofppNePz2alP-27" style="edgeStyle=orthogonalEdgeStyle;curved=1;rounded=0;hachureGap=4;orthogonalLoop=1;jettySize=auto;html=1;entryX=0.505;entryY=1.025;entryDx=0;entryDy=0;entryPerimeter=0;strokeColor=#FF00FF;strokeWidth=3;align=center;verticalAlign=middle;fontFamily=Architects Daughter;fontSource=https%3A%2F%2Ffonts.googleapis.com%2Fcss%3Ffamily%3DArchitects%2BDaughter;fontSize=11;fontColor=default;labelBackgroundColor=default;endArrow=classic;flowAnimation=1;exitX=0.5;exitY=0;exitDx=0;exitDy=0;exitPerimeter=0;" parent="1" source="-KfWr4D-ofppNePz2alP-19" target="-KfWr4D-ofppNePz2alP-22" edge="1">
          <mxGeometry relative="1" as="geometry" />
        </mxCell>
        <mxCell id="-KfWr4D-ofppNePz2alP-30" style="edgeStyle=orthogonalEdgeStyle;curved=1;rounded=0;hachureGap=4;orthogonalLoop=1;jettySize=auto;html=1;exitX=0.5;exitY=0;exitDx=0;exitDy=0;entryX=0.325;entryY=0.888;entryDx=0;entryDy=0;entryPerimeter=0;strokeColor=#FF00FF;strokeWidth=3;align=center;verticalAlign=middle;fontFamily=Architects Daughter;fontSource=https%3A%2F%2Ffonts.googleapis.com%2Fcss%3Ffamily%3DArchitects%2BDaughter;fontSize=11;fontColor=default;labelBackgroundColor=default;endArrow=classic;flowAnimation=1;" parent="1" source="-KfWr4D-ofppNePz2alP-29" target="-KfWr4D-ofppNePz2alP-7" edge="1">
          <mxGeometry relative="1" as="geometry" />
        </mxCell>
        <mxCell id="-KfWr4D-ofppNePz2alP-31" style="edgeStyle=orthogonalEdgeStyle;curved=1;rounded=0;hachureGap=4;orthogonalLoop=1;jettySize=auto;html=1;exitX=0.5;exitY=0;exitDx=0;exitDy=0;entryX=0.55;entryY=0.95;entryDx=0;entryDy=0;entryPerimeter=0;strokeColor=#FF00FF;strokeWidth=3;align=center;verticalAlign=middle;fontFamily=Architects Daughter;fontSource=https%3A%2F%2Ffonts.googleapis.com%2Fcss%3Ffamily%3DArchitects%2BDaughter;fontSize=11;fontColor=default;labelBackgroundColor=default;endArrow=classic;flowAnimation=1;" parent="1" source="-KfWr4D-ofppNePz2alP-10" target="-KfWr4D-ofppNePz2alP-5" edge="1">
          <mxGeometry relative="1" as="geometry" />
        </mxCell>
        <mxCell id="-KfWr4D-ofppNePz2alP-32" style="edgeStyle=orthogonalEdgeStyle;curved=1;rounded=0;hachureGap=4;orthogonalLoop=1;jettySize=auto;html=1;strokeColor=#7F00FF;strokeWidth=3;align=center;verticalAlign=middle;fontFamily=Architects Daughter;fontSource=https%3A%2F%2Ffonts.googleapis.com%2Fcss%3Ffamily%3DArchitects%2BDaughter;fontSize=11;fontColor=default;labelBackgroundColor=default;endArrow=classic;flowAnimation=1;entryX=0.317;entryY=0.113;entryDx=0;entryDy=0;entryPerimeter=0;" parent="1" source="-KfWr4D-ofppNePz2alP-2" target="-KfWr4D-ofppNePz2alP-6" edge="1">
          <mxGeometry relative="1" as="geometry">
            <mxPoint x="350" y="240" as="targetPoint" />
          </mxGeometry>
        </mxCell>
        <mxCell id="-KfWr4D-ofppNePz2alP-33" style="edgeStyle=orthogonalEdgeStyle;curved=1;rounded=0;hachureGap=4;orthogonalLoop=1;jettySize=auto;html=1;entryX=0.483;entryY=0.063;entryDx=0;entryDy=0;entryPerimeter=0;strokeColor=#7F00FF;strokeWidth=3;align=center;verticalAlign=middle;fontFamily=Architects Daughter;fontSource=https%3A%2F%2Ffonts.googleapis.com%2Fcss%3Ffamily%3DArchitects%2BDaughter;fontSize=11;fontColor=default;labelBackgroundColor=default;endArrow=classic;flowAnimation=1;" parent="1" source="-KfWr4D-ofppNePz2alP-1" target="-KfWr4D-ofppNePz2alP-6" edge="1">
          <mxGeometry relative="1" as="geometry" />
        </mxCell>
        <mxCell id="-KfWr4D-ofppNePz2alP-57" style="edgeStyle=orthogonalEdgeStyle;curved=1;rounded=0;hachureGap=4;orthogonalLoop=1;jettySize=auto;html=1;entryX=0.5;entryY=1;entryDx=0;entryDy=0;dashed=1;dashPattern=1 2;strokeColor=#00FF00;strokeWidth=2;align=center;verticalAlign=middle;fontFamily=Architects Daughter;fontSource=https%3A%2F%2Ffonts.googleapis.com%2Fcss%3Ffamily%3DArchitects%2BDaughter;fontSize=11;fontColor=default;labelBackgroundColor=default;endArrow=classicThin;endFill=1;flowAnimation=1;" parent="1" source="-KfWr4D-ofppNePz2alP-34" target="-KfWr4D-ofppNePz2alP-39" edge="1">
          <mxGeometry relative="1" as="geometry" />
        </mxCell>
        <mxCell id="-KfWr4D-ofppNePz2alP-34" value="Compliance Team" style="shape=umlActor;verticalLabelPosition=bottom;verticalAlign=top;html=1;outlineConnect=0;sketch=1;hachureGap=4;jiggle=2;curveFitting=1;fontFamily=Architects Daughter;fontSource=https%3A%2F%2Ffonts.googleapis.com%2Fcss%3Ffamily%3DArchitects%2BDaughter;fontSize=16;" parent="1" vertex="1">
          <mxGeometry x="590" y="830" width="30" height="60" as="geometry" />
        </mxCell>
        <mxCell id="-KfWr4D-ofppNePz2alP-39" value="CDEM" style="rounded=1;whiteSpace=wrap;html=1;sketch=1;hachureGap=4;jiggle=2;curveFitting=1;fontFamily=Architects Daughter;fontSource=https%3A%2F%2Ffonts.googleapis.com%2Fcss%3Ffamily%3DArchitects%2BDaughter;fontSize=18;fontColor=default;labelBackgroundColor=default;arcSize=50;" parent="1" vertex="1">
          <mxGeometry x="560" y="225" width="90" height="30" as="geometry" />
        </mxCell>
        <mxCell id="-KfWr4D-ofppNePz2alP-40" value="CSPM" style="rounded=1;whiteSpace=wrap;html=1;sketch=1;hachureGap=4;jiggle=2;curveFitting=1;fontFamily=Architects Daughter;fontSource=https%3A%2F%2Ffonts.googleapis.com%2Fcss%3Ffamily%3DArchitects%2BDaughter;fontSize=18;fontColor=default;labelBackgroundColor=default;arcSize=50;" parent="1" vertex="1">
          <mxGeometry x="560" y="320" width="90" height="30" as="geometry" />
        </mxCell>
        <mxCell id="-KfWr4D-ofppNePz2alP-41" value="DSPM" style="rounded=1;whiteSpace=wrap;html=1;sketch=1;hachureGap=4;jiggle=2;curveFitting=1;fontFamily=Architects Daughter;fontSource=https%3A%2F%2Ffonts.googleapis.com%2Fcss%3Ffamily%3DArchitects%2BDaughter;fontSize=18;fontColor=default;labelBackgroundColor=default;arcSize=50;" parent="1" vertex="1">
          <mxGeometry x="560" y="660" width="90" height="30" as="geometry" />
        </mxCell>
        <mxCell id="-KfWr4D-ofppNePz2alP-55" style="edgeStyle=orthogonalEdgeStyle;curved=1;rounded=0;hachureGap=4;orthogonalLoop=1;jettySize=auto;html=1;entryX=1;entryY=0.25;entryDx=0;entryDy=0;dashed=1;dashPattern=1 2;strokeColor=default;strokeWidth=1;align=center;verticalAlign=middle;fontFamily=Architects Daughter;fontSource=https%3A%2F%2Ffonts.googleapis.com%2Fcss%3Ffamily%3DArchitects%2BDaughter;fontSize=11;fontColor=default;labelBackgroundColor=default;endArrow=circle;endFill=0;flowAnimation=1;" parent="1" source="-KfWr4D-ofppNePz2alP-42" target="-KfWr4D-ofppNePz2alP-13" edge="1">
          <mxGeometry relative="1" as="geometry">
            <Array as="points">
              <mxPoint x="390" y="635" />
              <mxPoint x="390" y="530" />
            </Array>
          </mxGeometry>
        </mxCell>
        <mxCell id="-KfWr4D-ofppNePz2alP-42" value="CWP" style="rounded=1;whiteSpace=wrap;html=1;sketch=1;hachureGap=4;jiggle=2;curveFitting=1;fontFamily=Architects Daughter;fontSource=https%3A%2F%2Ffonts.googleapis.com%2Fcss%3Ffamily%3DArchitects%2BDaughter;fontSize=18;fontColor=default;labelBackgroundColor=default;arcSize=50;" parent="1" vertex="1">
          <mxGeometry x="560" y="620" width="90" height="30" as="geometry" />
        </mxCell>
        <mxCell id="-KfWr4D-ofppNePz2alP-43" value="CAS" style="rounded=1;whiteSpace=wrap;html=1;sketch=1;hachureGap=4;jiggle=2;curveFitting=1;fontFamily=Architects Daughter;fontSource=https%3A%2F%2Ffonts.googleapis.com%2Fcss%3Ffamily%3DArchitects%2BDaughter;fontSize=18;fontColor=default;labelBackgroundColor=default;arcSize=50;" parent="1" vertex="1">
          <mxGeometry x="560" y="710" width="90" height="30" as="geometry" />
        </mxCell>
        <mxCell id="-KfWr4D-ofppNePz2alP-53" style="edgeStyle=orthogonalEdgeStyle;curved=1;rounded=0;hachureGap=4;orthogonalLoop=1;jettySize=auto;html=1;dashed=1;dashPattern=1 2;strokeColor=default;strokeWidth=1;align=center;verticalAlign=middle;fontFamily=Architects Daughter;fontSource=https%3A%2F%2Ffonts.googleapis.com%2Fcss%3Ffamily%3DArchitects%2BDaughter;fontSize=11;fontColor=default;labelBackgroundColor=default;endArrow=circle;endFill=0;flowAnimation=1;" parent="1" source="-KfWr4D-ofppNePz2alP-44" target="-KfWr4D-ofppNePz2alP-9" edge="1">
          <mxGeometry relative="1" as="geometry" />
        </mxCell>
        <mxCell id="-KfWr4D-ofppNePz2alP-44" value="CIEM" style="rounded=1;whiteSpace=wrap;html=1;sketch=1;hachureGap=4;jiggle=2;curveFitting=1;fontFamily=Architects Daughter;fontSource=https%3A%2F%2Ffonts.googleapis.com%2Fcss%3Ffamily%3DArchitects%2BDaughter;fontSize=18;fontColor=default;labelBackgroundColor=default;arcSize=50;" parent="1" vertex="1">
          <mxGeometry x="560" y="440" width="90" height="30" as="geometry" />
        </mxCell>
        <mxCell id="-KfWr4D-ofppNePz2alP-49" value="Inside-OUt&lt;div&gt;Security&lt;/div&gt;" style="shape=singleArrow;direction=north;whiteSpace=wrap;html=1;sketch=1;hachureGap=4;jiggle=2;curveFitting=1;fontFamily=Architects Daughter;fontSource=https%3A%2F%2Ffonts.googleapis.com%2Fcss%3Ffamily%3DArchitects%2BDaughter;fontSize=15;fontColor=default;labelBackgroundColor=default;arrowWidth=0.6333333333333333;arrowSize=0.31;" parent="1" vertex="1">
          <mxGeometry x="90" y="320" width="120" height="100" as="geometry" />
        </mxCell>
        <mxCell id="-KfWr4D-ofppNePz2alP-50" value="Outside-In&lt;div&gt;Security&lt;/div&gt;" style="shape=singleArrow;direction=north;whiteSpace=wrap;html=1;sketch=1;hachureGap=4;jiggle=2;curveFitting=1;fontFamily=Architects Daughter;fontSource=https%3A%2F%2Ffonts.googleapis.com%2Fcss%3Ffamily%3DArchitects%2BDaughter;fontSize=15;fontColor=default;labelBackgroundColor=default;arrowWidth=0.6333333333333333;arrowSize=0.31;flipH=1;flipV=1;" parent="1" vertex="1">
          <mxGeometry x="90" y="190" width="120" height="100" as="geometry" />
        </mxCell>
        <mxCell id="-KfWr4D-ofppNePz2alP-51" style="edgeStyle=orthogonalEdgeStyle;curved=1;rounded=0;hachureGap=4;orthogonalLoop=1;jettySize=auto;html=1;exitX=0;exitY=0.5;exitDx=0;exitDy=0;strokeColor=default;strokeWidth=1;align=center;verticalAlign=middle;fontFamily=Architects Daughter;fontSource=https%3A%2F%2Ffonts.googleapis.com%2Fcss%3Ffamily%3DArchitects%2BDaughter;fontSize=11;fontColor=default;labelBackgroundColor=default;endArrow=circle;flowAnimation=1;endFill=0;dashed=1;dashPattern=1 2;" parent="1" source="-KfWr4D-ofppNePz2alP-39" edge="1">
          <mxGeometry relative="1" as="geometry">
            <mxPoint x="380" y="210" as="targetPoint" />
            <Array as="points">
              <mxPoint x="470" y="240" />
              <mxPoint x="470" y="210" />
            </Array>
          </mxGeometry>
        </mxCell>
        <mxCell id="-KfWr4D-ofppNePz2alP-52" style="edgeStyle=orthogonalEdgeStyle;curved=1;rounded=0;hachureGap=4;orthogonalLoop=1;jettySize=auto;html=1;entryX=0.88;entryY=0.25;entryDx=0;entryDy=0;entryPerimeter=0;strokeColor=default;strokeWidth=1;align=center;verticalAlign=middle;fontFamily=Architects Daughter;fontSource=https%3A%2F%2Ffonts.googleapis.com%2Fcss%3Ffamily%3DArchitects%2BDaughter;fontSize=11;fontColor=default;labelBackgroundColor=default;endArrow=circle;endFill=0;flowAnimation=1;dashed=1;dashPattern=1 2;" parent="1" source="-KfWr4D-ofppNePz2alP-40" target="-KfWr4D-ofppNePz2alP-7" edge="1">
          <mxGeometry relative="1" as="geometry" />
        </mxCell>
        <mxCell id="-KfWr4D-ofppNePz2alP-54" style="edgeStyle=orthogonalEdgeStyle;curved=1;rounded=0;hachureGap=4;orthogonalLoop=1;jettySize=auto;html=1;exitX=0;exitY=0.5;exitDx=0;exitDy=0;entryX=1;entryY=0;entryDx=0;entryDy=45;entryPerimeter=0;dashed=1;dashPattern=1 2;strokeColor=default;strokeWidth=1;align=center;verticalAlign=middle;fontFamily=Architects Daughter;fontSource=https%3A%2F%2Ffonts.googleapis.com%2Fcss%3Ffamily%3DArchitects%2BDaughter;fontSize=11;fontColor=default;labelBackgroundColor=default;endArrow=circle;endFill=0;flowAnimation=1;" parent="1" source="-KfWr4D-ofppNePz2alP-41" target="-KfWr4D-ofppNePz2alP-15" edge="1">
          <mxGeometry relative="1" as="geometry">
            <Array as="points">
              <mxPoint x="380" y="675" />
              <mxPoint x="380" y="585" />
            </Array>
          </mxGeometry>
        </mxCell>
        <mxCell id="-KfWr4D-ofppNePz2alP-56" style="edgeStyle=orthogonalEdgeStyle;curved=1;rounded=0;hachureGap=4;orthogonalLoop=1;jettySize=auto;html=1;dashed=1;dashPattern=1 2;strokeColor=default;strokeWidth=1;align=center;verticalAlign=middle;fontFamily=Architects Daughter;fontSource=https%3A%2F%2Ffonts.googleapis.com%2Fcss%3Ffamily%3DArchitects%2BDaughter;fontSize=11;fontColor=default;labelBackgroundColor=default;endArrow=circle;endFill=0;flowAnimation=1;" parent="1" source="-KfWr4D-ofppNePz2alP-43" edge="1">
          <mxGeometry relative="1" as="geometry">
            <mxPoint x="300" y="800" as="targetPoint" />
            <Array as="points">
              <mxPoint x="420" y="725" />
              <mxPoint x="420" y="800" />
            </Array>
          </mxGeometry>
        </mxCell>
      </root>
    </mxGraphModel>
  </diagram>
  <diagram id="wYlSqZHWVHP3leSuqylQ" name="Extendibility">
    <mxGraphModel dx="1524" dy="820" grid="0" gridSize="10" guides="1" tooltips="1" connect="1" arrows="1" fold="1" page="0" pageScale="1" pageWidth="850" pageHeight="1100" math="0" shadow="0">
      <root>
        <mxCell id="0" />
        <mxCell id="1" parent="0" />
        <mxCell id="XUkwicXS20x6-2x69tAy-20" style="edgeStyle=orthogonalEdgeStyle;curved=1;rounded=0;sketch=1;hachureGap=4;jiggle=2;curveFitting=1;orthogonalLoop=1;jettySize=auto;html=1;strokeColor=default;align=center;verticalAlign=middle;fontFamily=Architects Daughter;fontSource=https%3A%2F%2Ffonts.googleapis.com%2Fcss%3Ffamily%3DArchitects%2BDaughter;fontSize=11;fontColor=default;labelBackgroundColor=default;endArrow=classic;" parent="1" source="XUkwicXS20x6-2x69tAy-1" target="XUkwicXS20x6-2x69tAy-2" edge="1">
          <mxGeometry relative="1" as="geometry" />
        </mxCell>
        <mxCell id="XUkwicXS20x6-2x69tAy-1" value="Prisma Cloud" style="ellipse;shape=cloud;whiteSpace=wrap;html=1;sketch=1;hachureGap=4;jiggle=2;curveFitting=1;fontFamily=Architects Daughter;fontSource=https%3A%2F%2Ffonts.googleapis.com%2Fcss%3Ffamily%3DArchitects%2BDaughter;fontSize=16;" parent="1" vertex="1">
          <mxGeometry x="375" y="240" width="160" height="106.67" as="geometry" />
        </mxCell>
        <mxCell id="XUkwicXS20x6-2x69tAy-2" value="Cloud Native Application Protection Platform&lt;div style=&quot;font-size: 17px;&quot;&gt;(CNAPP)&lt;/div&gt;" style="rounded=1;whiteSpace=wrap;html=1;sketch=1;hachureGap=4;jiggle=2;curveFitting=1;fontFamily=Architects Daughter;fontSource=https%3A%2F%2Ffonts.googleapis.com%2Fcss%3Ffamily%3DArchitects%2BDaughter;fontSize=17;" parent="1" vertex="1">
          <mxGeometry x="227.5" y="390" width="455" height="60" as="geometry" />
        </mxCell>
        <mxCell id="XUkwicXS20x6-2x69tAy-10" style="edgeStyle=orthogonalEdgeStyle;rounded=0;hachureGap=4;orthogonalLoop=1;jettySize=auto;html=1;exitX=1;exitY=0.5;exitDx=0;exitDy=0;fontFamily=Architects Daughter;fontSource=https%3A%2F%2Ffonts.googleapis.com%2Fcss%3Ffamily%3DArchitects%2BDaughter;flowAnimation=1;strokeWidth=2;strokeColor=#FF00FF;" parent="1" source="XUkwicXS20x6-2x69tAy-3" target="XUkwicXS20x6-2x69tAy-4" edge="1">
          <mxGeometry relative="1" as="geometry" />
        </mxCell>
        <mxCell id="XUkwicXS20x6-2x69tAy-17" style="edgeStyle=orthogonalEdgeStyle;curved=1;rounded=0;hachureGap=4;orthogonalLoop=1;jettySize=auto;html=1;exitX=1;exitY=0.75;exitDx=0;exitDy=0;entryX=0;entryY=0.5;entryDx=0;entryDy=0;strokeColor=#FF00FF;align=center;verticalAlign=middle;fontFamily=Architects Daughter;fontSource=https%3A%2F%2Ffonts.googleapis.com%2Fcss%3Ffamily%3DArchitects%2BDaughter;fontSize=11;fontColor=default;labelBackgroundColor=default;endArrow=classic;flowAnimation=1;strokeWidth=2;" parent="1" source="XUkwicXS20x6-2x69tAy-3" target="XUkwicXS20x6-2x69tAy-5" edge="1">
          <mxGeometry relative="1" as="geometry" />
        </mxCell>
        <mxCell id="XUkwicXS20x6-2x69tAy-18" style="edgeStyle=orthogonalEdgeStyle;curved=1;rounded=0;hachureGap=4;orthogonalLoop=1;jettySize=auto;html=1;exitX=1;exitY=1;exitDx=0;exitDy=0;entryX=0;entryY=0.5;entryDx=0;entryDy=0;strokeColor=#FF00FF;align=center;verticalAlign=middle;fontFamily=Architects Daughter;fontSource=https%3A%2F%2Ffonts.googleapis.com%2Fcss%3Ffamily%3DArchitects%2BDaughter;fontSize=11;fontColor=default;labelBackgroundColor=default;endArrow=classic;flowAnimation=1;strokeWidth=2;" parent="1" source="XUkwicXS20x6-2x69tAy-3" target="XUkwicXS20x6-2x69tAy-6" edge="1">
          <mxGeometry relative="1" as="geometry" />
        </mxCell>
        <mxCell id="XUkwicXS20x6-2x69tAy-3" value="CSPM" style="rounded=1;whiteSpace=wrap;html=1;sketch=1;hachureGap=4;jiggle=2;curveFitting=1;fontFamily=Architects Daughter;fontSource=https%3A%2F%2Ffonts.googleapis.com%2Fcss%3Ffamily%3DArchitects%2BDaughter;fontSize=18;" parent="1" vertex="1">
          <mxGeometry x="208.75" y="481" width="80" height="50" as="geometry" />
        </mxCell>
        <mxCell id="XUkwicXS20x6-2x69tAy-14" style="edgeStyle=orthogonalEdgeStyle;curved=1;rounded=0;hachureGap=4;orthogonalLoop=1;jettySize=auto;html=1;exitX=1;exitY=0.5;exitDx=0;exitDy=0;entryX=0;entryY=0.5;entryDx=0;entryDy=0;strokeColor=#FF00FF;align=center;verticalAlign=middle;fontFamily=Architects Daughter;fontSource=https%3A%2F%2Ffonts.googleapis.com%2Fcss%3Ffamily%3DArchitects%2BDaughter;fontSize=11;fontColor=default;labelBackgroundColor=default;endArrow=classic;flowAnimation=1;strokeWidth=2;" parent="1" source="XUkwicXS20x6-2x69tAy-4" target="XUkwicXS20x6-2x69tAy-7" edge="1">
          <mxGeometry relative="1" as="geometry" />
        </mxCell>
        <mxCell id="XUkwicXS20x6-2x69tAy-4" value="DSPM" style="rounded=1;whiteSpace=wrap;html=1;sketch=1;hachureGap=4;jiggle=2;curveFitting=1;fontFamily=Architects Daughter;fontSource=https%3A%2F%2Ffonts.googleapis.com%2Fcss%3Ffamily%3DArchitects%2BDaughter;fontSize=18;" parent="1" vertex="1">
          <mxGeometry x="348.75" y="481" width="80" height="50" as="geometry" />
        </mxCell>
        <mxCell id="XUkwicXS20x6-2x69tAy-5" value="CIEM" style="rounded=1;whiteSpace=wrap;html=1;sketch=1;hachureGap=4;jiggle=2;curveFitting=1;fontFamily=Architects Daughter;fontSource=https%3A%2F%2Ffonts.googleapis.com%2Fcss%3Ffamily%3DArchitects%2BDaughter;fontSize=18;" parent="1" vertex="1">
          <mxGeometry x="348.75" y="551" width="80" height="50" as="geometry" />
        </mxCell>
        <mxCell id="XUkwicXS20x6-2x69tAy-16" style="edgeStyle=orthogonalEdgeStyle;curved=1;rounded=0;hachureGap=4;orthogonalLoop=1;jettySize=auto;html=1;entryX=0;entryY=1;entryDx=0;entryDy=0;strokeColor=#FF00FF;align=center;verticalAlign=middle;fontFamily=Architects Daughter;fontSource=https%3A%2F%2Ffonts.googleapis.com%2Fcss%3Ffamily%3DArchitects%2BDaughter;fontSize=11;fontColor=default;labelBackgroundColor=default;endArrow=classic;flowAnimation=1;strokeWidth=2;" parent="1" source="XUkwicXS20x6-2x69tAy-6" target="XUkwicXS20x6-2x69tAy-7" edge="1">
          <mxGeometry relative="1" as="geometry">
            <Array as="points">
              <mxPoint x="460" y="646" />
              <mxPoint x="460" y="531" />
            </Array>
          </mxGeometry>
        </mxCell>
        <mxCell id="XUkwicXS20x6-2x69tAy-6" value="CDEM" style="rounded=1;whiteSpace=wrap;html=1;sketch=1;hachureGap=4;jiggle=2;curveFitting=1;fontFamily=Architects Daughter;fontSource=https%3A%2F%2Ffonts.googleapis.com%2Fcss%3Ffamily%3DArchitects%2BDaughter;fontSize=18;" parent="1" vertex="1">
          <mxGeometry x="348.75" y="621" width="80" height="50" as="geometry" />
        </mxCell>
        <mxCell id="XUkwicXS20x6-2x69tAy-19" style="edgeStyle=orthogonalEdgeStyle;curved=1;rounded=0;hachureGap=4;orthogonalLoop=1;jettySize=auto;html=1;exitX=1;exitY=0.5;exitDx=0;exitDy=0;entryX=0;entryY=0.5;entryDx=0;entryDy=0;strokeColor=#FF00FF;align=center;verticalAlign=middle;fontFamily=Architects Daughter;fontSource=https%3A%2F%2Ffonts.googleapis.com%2Fcss%3Ffamily%3DArchitects%2BDaughter;fontSize=11;fontColor=default;labelBackgroundColor=default;endArrow=classic;flowAnimation=1;strokeWidth=2;" parent="1" source="XUkwicXS20x6-2x69tAy-7" target="XUkwicXS20x6-2x69tAy-8" edge="1">
          <mxGeometry relative="1" as="geometry" />
        </mxCell>
        <mxCell id="XUkwicXS20x6-2x69tAy-7" value="CWP" style="rounded=1;whiteSpace=wrap;html=1;sketch=1;hachureGap=4;jiggle=2;curveFitting=1;fontFamily=Architects Daughter;fontSource=https%3A%2F%2Ffonts.googleapis.com%2Fcss%3Ffamily%3DArchitects%2BDaughter;fontSize=18;" parent="1" vertex="1">
          <mxGeometry x="498.75" y="481" width="80" height="50" as="geometry" />
        </mxCell>
        <mxCell id="VmdYSDTkog4btbBNQi8n-2" style="edgeStyle=orthogonalEdgeStyle;curved=1;rounded=0;hachureGap=4;orthogonalLoop=1;jettySize=auto;html=1;entryX=0.75;entryY=1;entryDx=0;entryDy=0;strokeColor=#FF00FF;align=center;verticalAlign=middle;fontFamily=Architects Daughter;fontSource=https%3A%2F%2Ffonts.googleapis.com%2Fcss%3Ffamily%3DArchitects%2BDaughter;fontSize=11;fontColor=default;labelBackgroundColor=default;endArrow=classic;exitX=0.25;exitY=1;exitDx=0;exitDy=0;flowAnimation=1;strokeWidth=2;" edge="1" parent="1" source="XUkwicXS20x6-2x69tAy-8" target="XUkwicXS20x6-2x69tAy-7">
          <mxGeometry relative="1" as="geometry">
            <Array as="points">
              <mxPoint x="646" y="580" />
              <mxPoint x="559" y="580" />
            </Array>
          </mxGeometry>
        </mxCell>
        <mxCell id="XUkwicXS20x6-2x69tAy-8" value="CAS" style="rounded=1;whiteSpace=wrap;html=1;sketch=1;hachureGap=4;jiggle=2;curveFitting=1;fontFamily=Architects Daughter;fontSource=https%3A%2F%2Ffonts.googleapis.com%2Fcss%3Ffamily%3DArchitects%2BDaughter;fontSize=18;" parent="1" vertex="1">
          <mxGeometry x="628.75" y="481" width="70" height="50" as="geometry" />
        </mxCell>
        <mxCell id="XUkwicXS20x6-2x69tAy-15" style="edgeStyle=orthogonalEdgeStyle;curved=1;rounded=0;hachureGap=4;orthogonalLoop=1;jettySize=auto;html=1;entryX=0;entryY=0.75;entryDx=0;entryDy=0;strokeColor=#FF00FF;align=center;verticalAlign=middle;fontFamily=Architects Daughter;fontSource=https%3A%2F%2Ffonts.googleapis.com%2Fcss%3Ffamily%3DArchitects%2BDaughter;fontSize=11;fontColor=default;labelBackgroundColor=default;endArrow=classic;flowAnimation=1;strokeWidth=2;" parent="1" source="XUkwicXS20x6-2x69tAy-5" target="XUkwicXS20x6-2x69tAy-7" edge="1">
          <mxGeometry relative="1" as="geometry">
            <Array as="points">
              <mxPoint x="450" y="576" />
              <mxPoint x="450" y="519" />
            </Array>
          </mxGeometry>
        </mxCell>
        <mxCell id="XUkwicXS20x6-2x69tAy-21" value="Cortex XDR" style="ellipse;shape=cloud;whiteSpace=wrap;html=1;sketch=1;hachureGap=4;jiggle=2;curveFitting=1;fontFamily=Architects Daughter;fontSource=https%3A%2F%2Ffonts.googleapis.com%2Fcss%3Ffamily%3DArchitects%2BDaughter;fontSize=16;" parent="1" vertex="1">
          <mxGeometry x="468.75" y="680" width="160" height="106.67" as="geometry" />
        </mxCell>
        <mxCell id="XUkwicXS20x6-2x69tAy-22" value="Unified Agent" style="edgeStyle=orthogonalEdgeStyle;curved=1;rounded=0;sketch=1;hachureGap=4;jiggle=2;curveFitting=1;orthogonalLoop=1;jettySize=auto;html=1;exitX=0.5;exitY=1;exitDx=0;exitDy=0;entryX=0.754;entryY=0.137;entryDx=0;entryDy=0;entryPerimeter=0;strokeColor=default;align=center;verticalAlign=middle;fontFamily=Architects Daughter;fontSource=https%3A%2F%2Ffonts.googleapis.com%2Fcss%3Ffamily%3DArchitects%2BDaughter;fontSize=13;fontColor=default;labelBackgroundColor=default;endArrow=classic;startArrow=classic;startFill=1;dashed=1;" parent="1" source="XUkwicXS20x6-2x69tAy-7" target="XUkwicXS20x6-2x69tAy-21" edge="1">
          <mxGeometry relative="1" as="geometry">
            <mxPoint x="623.3300000000002" y="614.7337" as="targetPoint" />
          </mxGeometry>
        </mxCell>
        <mxCell id="XUkwicXS20x6-2x69tAy-23" value="Cortex&lt;div&gt;XSOAR&lt;/div&gt;" style="ellipse;shape=cloud;whiteSpace=wrap;html=1;sketch=1;hachureGap=4;jiggle=2;curveFitting=1;fontFamily=Architects Daughter;fontSource=https%3A%2F%2Ffonts.googleapis.com%2Fcss%3Ffamily%3DArchitects%2BDaughter;fontSize=16;" parent="1" vertex="1">
          <mxGeometry x="158.75" y="660.0000000000001" width="130" height="106.67" as="geometry" />
        </mxCell>
        <mxCell id="XUkwicXS20x6-2x69tAy-25" value="Alerts" style="edgeStyle=orthogonalEdgeStyle;curved=1;rounded=0;sketch=1;hachureGap=4;jiggle=2;curveFitting=1;orthogonalLoop=1;jettySize=auto;html=1;strokeColor=default;align=center;verticalAlign=middle;fontFamily=Architects Daughter;fontSource=https%3A%2F%2Ffonts.googleapis.com%2Fcss%3Ffamily%3DArchitects%2BDaughter;fontSize=11;fontColor=default;labelBackgroundColor=default;endArrow=classic;" parent="1" source="XUkwicXS20x6-2x69tAy-1" target="XUkwicXS20x6-2x69tAy-23" edge="1">
          <mxGeometry x="-0.0369" y="10" relative="1" as="geometry">
            <mxPoint as="offset" />
            <Array as="points">
              <mxPoint x="180" y="293" />
              <mxPoint x="180" y="610" />
              <mxPoint x="224" y="610" />
            </Array>
          </mxGeometry>
        </mxCell>
        <mxCell id="XUkwicXS20x6-2x69tAy-26" value="API" style="rounded=1;whiteSpace=wrap;html=1;sketch=1;hachureGap=4;jiggle=2;curveFitting=1;fontFamily=Architects Daughter;fontSource=https%3A%2F%2Ffonts.googleapis.com%2Fcss%3Ffamily%3DArchitects%2BDaughter;fontSize=18;labelBackgroundColor=none;arcSize=50;" parent="1" vertex="1">
          <mxGeometry x="500" y="250" width="70" height="30" as="geometry" />
        </mxCell>
        <mxCell id="XUkwicXS20x6-2x69tAy-28" style="edgeStyle=orthogonalEdgeStyle;curved=1;rounded=0;sketch=1;hachureGap=4;jiggle=2;curveFitting=1;orthogonalLoop=1;jettySize=auto;html=1;entryX=1;entryY=0.25;entryDx=0;entryDy=0;strokeColor=default;align=center;verticalAlign=middle;fontFamily=Architects Daughter;fontSource=https%3A%2F%2Ffonts.googleapis.com%2Fcss%3Ffamily%3DArchitects%2BDaughter;fontSize=11;fontColor=default;labelBackgroundColor=default;endArrow=classic;" parent="1" source="XUkwicXS20x6-2x69tAy-27" target="XUkwicXS20x6-2x69tAy-26" edge="1">
          <mxGeometry relative="1" as="geometry" />
        </mxCell>
        <mxCell id="XUkwicXS20x6-2x69tAy-27" value="3rd Party" style="rounded=1;whiteSpace=wrap;html=1;sketch=1;hachureGap=4;jiggle=2;curveFitting=1;fontFamily=Architects Daughter;fontSource=https%3A%2F%2Ffonts.googleapis.com%2Fcss%3Ffamily%3DArchitects%2BDaughter;fontSize=17;fontColor=default;labelBackgroundColor=default;" parent="1" vertex="1">
          <mxGeometry x="620" y="210" width="100" height="40" as="geometry" />
        </mxCell>
        <mxCell id="XUkwicXS20x6-2x69tAy-29" value="1" style="ellipse;whiteSpace=wrap;html=1;aspect=fixed;sketch=1;hachureGap=4;jiggle=2;curveFitting=1;fontFamily=Architects Daughter;fontSource=https%3A%2F%2Ffonts.googleapis.com%2Fcss%3Ffamily%3DArchitects%2BDaughter;fontSize=18;fontColor=default;labelBackgroundColor=default;" parent="1" vertex="1">
          <mxGeometry x="328.75" y="461" width="30" height="30" as="geometry" />
        </mxCell>
        <mxCell id="XUkwicXS20x6-2x69tAy-30" value="identity&lt;div&gt;Provider&lt;/div&gt;" style="ellipse;shape=cloud;whiteSpace=wrap;html=1;sketch=1;hachureGap=4;jiggle=2;curveFitting=1;fontFamily=Architects Daughter;fontSource=https%3A%2F%2Ffonts.googleapis.com%2Fcss%3Ffamily%3DArchitects%2BDaughter;fontSize=16;" parent="1" vertex="1">
          <mxGeometry x="617.5" y="250" width="105" height="70" as="geometry" />
        </mxCell>
        <mxCell id="XUkwicXS20x6-2x69tAy-31" value="SSO" style="edgeStyle=orthogonalEdgeStyle;curved=1;rounded=0;sketch=1;hachureGap=4;jiggle=2;curveFitting=1;orthogonalLoop=1;jettySize=auto;html=1;entryX=0.945;entryY=0.633;entryDx=0;entryDy=0;entryPerimeter=0;strokeColor=default;align=center;verticalAlign=middle;fontFamily=Architects Daughter;fontSource=https%3A%2F%2Ffonts.googleapis.com%2Fcss%3Ffamily%3DArchitects%2BDaughter;fontSize=11;fontColor=default;labelBackgroundColor=default;endArrow=classic;" parent="1" source="XUkwicXS20x6-2x69tAy-30" target="XUkwicXS20x6-2x69tAy-1" edge="1">
          <mxGeometry x="-0.0051" relative="1" as="geometry">
            <mxPoint as="offset" />
          </mxGeometry>
        </mxCell>
        <mxCell id="XUkwicXS20x6-2x69tAy-32" value="Collection&lt;div&gt;Integration&lt;/div&gt;" style="edgeStyle=orthogonalEdgeStyle;curved=1;rounded=0;sketch=1;hachureGap=4;jiggle=2;curveFitting=1;orthogonalLoop=1;jettySize=auto;html=1;exitX=0.8;exitY=0.8;exitDx=0;exitDy=0;exitPerimeter=0;entryX=0.936;entryY=0.393;entryDx=0;entryDy=0;entryPerimeter=0;strokeColor=default;align=center;verticalAlign=middle;fontFamily=Architects Daughter;fontSource=https%3A%2F%2Ffonts.googleapis.com%2Fcss%3Ffamily%3DArchitects%2BDaughter;fontSize=11;fontColor=default;labelBackgroundColor=default;endArrow=classic;" parent="1" source="XUkwicXS20x6-2x69tAy-1" target="XUkwicXS20x6-2x69tAy-21" edge="1">
          <mxGeometry relative="1" as="geometry">
            <Array as="points">
              <mxPoint x="740" y="325" />
              <mxPoint x="740" y="640" />
              <mxPoint x="670" y="640" />
              <mxPoint x="670" y="722" />
            </Array>
          </mxGeometry>
        </mxCell>
        <mxCell id="VmdYSDTkog4btbBNQi8n-3" value="Cortex&lt;div&gt;Xpanse&lt;/div&gt;" style="ellipse;shape=cloud;whiteSpace=wrap;html=1;sketch=1;hachureGap=4;jiggle=2;curveFitting=1;fontFamily=Architects Daughter;fontSource=https%3A%2F%2Ffonts.googleapis.com%2Fcss%3Ffamily%3DArchitects%2BDaughter;fontSize=16;" vertex="1" parent="1">
          <mxGeometry x="260" y="740" width="125" height="86.67" as="geometry" />
        </mxCell>
        <mxCell id="VmdYSDTkog4btbBNQi8n-5" value="Upgrade" style="edgeStyle=orthogonalEdgeStyle;curved=1;rounded=0;sketch=1;hachureGap=4;jiggle=2;curveFitting=1;orthogonalLoop=1;jettySize=auto;html=1;exitX=0.5;exitY=1;exitDx=0;exitDy=0;strokeColor=default;align=center;verticalAlign=middle;fontFamily=Architects Daughter;fontSource=https%3A%2F%2Ffonts.googleapis.com%2Fcss%3Ffamily%3DArchitects%2BDaughter;fontSize=11;fontColor=default;labelBackgroundColor=default;endArrow=classic;" edge="1" parent="1" source="XUkwicXS20x6-2x69tAy-6" target="VmdYSDTkog4btbBNQi8n-3">
          <mxGeometry relative="1" as="geometry" />
        </mxCell>
        <mxCell id="VmdYSDTkog4btbBNQi8n-6" value="Cortex XSIAM" style="ellipse;shape=cloud;whiteSpace=wrap;html=1;sketch=1;hachureGap=4;jiggle=2;curveFitting=1;fontFamily=Architects Daughter;fontSource=https%3A%2F%2Ffonts.googleapis.com%2Fcss%3Ffamily%3DArchitects%2BDaughter;fontSize=16;" vertex="1" parent="1">
          <mxGeometry x="243.75" y="900" width="191.25" height="120" as="geometry" />
        </mxCell>
        <mxCell id="VmdYSDTkog4btbBNQi8n-7" style="edgeStyle=orthogonalEdgeStyle;curved=1;rounded=0;sketch=1;hachureGap=4;jiggle=2;curveFitting=1;orthogonalLoop=1;jettySize=auto;html=1;entryX=0.801;entryY=0.171;entryDx=0;entryDy=0;entryPerimeter=0;strokeColor=default;align=center;verticalAlign=middle;fontFamily=Architects Daughter;fontSource=https%3A%2F%2Ffonts.googleapis.com%2Fcss%3Ffamily%3DArchitects%2BDaughter;fontSize=11;fontColor=default;labelBackgroundColor=default;endArrow=classic;" edge="1" parent="1" source="XUkwicXS20x6-2x69tAy-21" target="VmdYSDTkog4btbBNQi8n-6">
          <mxGeometry relative="1" as="geometry" />
        </mxCell>
        <mxCell id="VmdYSDTkog4btbBNQi8n-8" style="edgeStyle=orthogonalEdgeStyle;curved=1;rounded=0;sketch=1;hachureGap=4;jiggle=2;curveFitting=1;orthogonalLoop=1;jettySize=auto;html=1;entryX=0.538;entryY=0.123;entryDx=0;entryDy=0;entryPerimeter=0;strokeColor=default;align=center;verticalAlign=middle;fontFamily=Architects Daughter;fontSource=https%3A%2F%2Ffonts.googleapis.com%2Fcss%3Ffamily%3DArchitects%2BDaughter;fontSize=11;fontColor=default;labelBackgroundColor=default;endArrow=classic;" edge="1" parent="1" source="VmdYSDTkog4btbBNQi8n-3" target="VmdYSDTkog4btbBNQi8n-6">
          <mxGeometry relative="1" as="geometry" />
        </mxCell>
        <mxCell id="VmdYSDTkog4btbBNQi8n-9" style="edgeStyle=orthogonalEdgeStyle;curved=1;rounded=0;sketch=1;hachureGap=4;jiggle=2;curveFitting=1;orthogonalLoop=1;jettySize=auto;html=1;entryX=0.25;entryY=0.25;entryDx=0;entryDy=0;entryPerimeter=0;strokeColor=default;align=center;verticalAlign=middle;fontFamily=Architects Daughter;fontSource=https%3A%2F%2Ffonts.googleapis.com%2Fcss%3Ffamily%3DArchitects%2BDaughter;fontSize=11;fontColor=default;labelBackgroundColor=default;endArrow=classic;exitX=0.497;exitY=0.917;exitDx=0;exitDy=0;exitPerimeter=0;" edge="1" parent="1" source="XUkwicXS20x6-2x69tAy-23" target="VmdYSDTkog4btbBNQi8n-6">
          <mxGeometry relative="1" as="geometry" />
        </mxCell>
        <mxCell id="VmdYSDTkog4btbBNQi8n-11" value="Sec&lt;div style=&quot;font-size: 16px;&quot;&gt;Ops&lt;/div&gt;" style="endArrow=classic;startArrow=classic;html=1;rounded=0;sketch=1;hachureGap=4;jiggle=2;curveFitting=1;strokeColor=default;align=center;verticalAlign=middle;fontFamily=Architects Daughter;fontSource=https%3A%2F%2Ffonts.googleapis.com%2Fcss%3Ffamily%3DArchitects%2BDaughter;fontSize=16;fontColor=default;labelBackgroundColor=default;edgeStyle=orthogonalEdgeStyle;curved=1;" edge="1" parent="1">
          <mxGeometry width="50" height="50" relative="1" as="geometry">
            <mxPoint x="120" y="1020" as="sourcePoint" />
            <mxPoint x="120" y="690" as="targetPoint" />
          </mxGeometry>
        </mxCell>
        <mxCell id="VmdYSDTkog4btbBNQi8n-12" value="Cloud&lt;div&gt;Ops&lt;/div&gt;&lt;div&gt;/&lt;/div&gt;&lt;div&gt;Dev&lt;/div&gt;&lt;div&gt;Ops&lt;/div&gt;" style="endArrow=classic;startArrow=classic;html=1;rounded=0;sketch=1;hachureGap=4;jiggle=2;curveFitting=1;strokeColor=default;align=center;verticalAlign=middle;fontFamily=Architects Daughter;fontSource=https%3A%2F%2Ffonts.googleapis.com%2Fcss%3Ffamily%3DArchitects%2BDaughter;fontSize=16;fontColor=default;labelBackgroundColor=default;edgeStyle=orthogonalEdgeStyle;curved=1;" edge="1" parent="1">
          <mxGeometry width="50" height="50" relative="1" as="geometry">
            <mxPoint x="120" y="680" as="sourcePoint" />
            <mxPoint x="120" y="210" as="targetPoint" />
          </mxGeometry>
        </mxCell>
        <mxCell id="L3gz-TsPZwEQId5ztJrl-2" value="" style="shape=image;verticalLabelPosition=bottom;labelBackgroundColor=default;verticalAlign=top;aspect=fixed;imageAspect=0;image=https://plugins.jetbrains.com/files/21907/522769/icon/pluginIcon.png;" vertex="1" parent="1">
          <mxGeometry x="375" y="210" width="50" height="50" as="geometry" />
        </mxCell>
        <mxCell id="L3gz-TsPZwEQId5ztJrl-3" value="" style="shape=image;imageAspect=0;aspect=fixed;verticalLabelPosition=bottom;verticalAlign=top;sketch=1;hachureGap=4;jiggle=2;curveFitting=1;fontFamily=Architects Daughter;fontSource=https%3A%2F%2Ffonts.googleapis.com%2Fcss%3Ffamily%3DArchitects%2BDaughter;fontSize=11;fontColor=default;labelBackgroundColor=default;image=https://lh3.googleusercontent.com/YlwczxRATj_a4sGRLSJi7JzhGsxiYupSzuAu1i94PlJ6CYl71ghwYgeiDiEyDQxD8NRQI62OWXLxpbdz2Qk;" vertex="1" parent="1">
          <mxGeometry x="468.75" y="660" width="32.2" height="41" as="geometry" />
        </mxCell>
        <mxCell id="L3gz-TsPZwEQId5ztJrl-4" value="" style="shape=image;imageAspect=0;aspect=fixed;verticalLabelPosition=bottom;verticalAlign=top;sketch=1;hachureGap=4;jiggle=2;curveFitting=1;fontFamily=Architects Daughter;fontSource=https%3A%2F%2Ffonts.googleapis.com%2Fcss%3Ffamily%3DArchitects%2BDaughter;fontSize=11;fontColor=default;labelBackgroundColor=default;image=https://lh3.googleusercontent.com/YlwczxRATj_a4sGRLSJi7JzhGsxiYupSzuAu1i94PlJ6CYl71ghwYgeiDiEyDQxD8NRQI62OWXLxpbdz2Qk;" vertex="1" parent="1">
          <mxGeometry x="372.65" y="720" width="32.2" height="41" as="geometry" />
        </mxCell>
        <mxCell id="L3gz-TsPZwEQId5ztJrl-5" value="" style="shape=image;imageAspect=0;aspect=fixed;verticalLabelPosition=bottom;verticalAlign=top;sketch=1;hachureGap=4;jiggle=2;curveFitting=1;fontFamily=Architects Daughter;fontSource=https%3A%2F%2Ffonts.googleapis.com%2Fcss%3Ffamily%3DArchitects%2BDaughter;fontSize=11;fontColor=default;labelBackgroundColor=default;image=https://lh3.googleusercontent.com/YlwczxRATj_a4sGRLSJi7JzhGsxiYupSzuAu1i94PlJ6CYl71ghwYgeiDiEyDQxD8NRQI62OWXLxpbdz2Qk;" vertex="1" parent="1">
          <mxGeometry x="149.99999999999997" y="639" width="32.2" height="41" as="geometry" />
        </mxCell>
        <mxCell id="L3gz-TsPZwEQId5ztJrl-6" value="" style="shape=image;imageAspect=0;aspect=fixed;verticalLabelPosition=bottom;verticalAlign=top;sketch=1;hachureGap=4;jiggle=2;curveFitting=1;fontFamily=Architects Daughter;fontSource=https%3A%2F%2Ffonts.googleapis.com%2Fcss%3Ffamily%3DArchitects%2BDaughter;fontSize=11;fontColor=default;labelBackgroundColor=default;image=https://lh3.googleusercontent.com/YlwczxRATj_a4sGRLSJi7JzhGsxiYupSzuAu1i94PlJ6CYl71ghwYgeiDiEyDQxD8NRQI62OWXLxpbdz2Qk;" vertex="1" parent="1">
          <mxGeometry x="232.64999999999998" y="890" width="32.2" height="41" as="geometry" />
        </mxCell>
        <mxCell id="L3gz-TsPZwEQId5ztJrl-7" value="Prisma Cloud X Cortex" style="text;html=1;align=center;verticalAlign=middle;whiteSpace=wrap;rounded=0;fontFamily=Architects Daughter;fontSource=https%3A%2F%2Ffonts.googleapis.com%2Fcss%3Ffamily%3DArchitects%2BDaughter;fontSize=30;fontColor=default;labelBackgroundColor=default;fontStyle=4" vertex="1" parent="1">
          <mxGeometry x="428.75" y="811" width="338.75" height="30" as="geometry" />
        </mxCell>
      </root>
    </mxGraphModel>
  </diagram>
</mxfile>
